<?xml version="1.0" encoding="UTF-8" standalone="no"?><!-- Generator: Gravit.io --><svg xmlns="http://www.w3.org/2000/svg" xmlns:xlink="http://www.w3.org/1999/xlink" style="isolation:isolate" viewBox="36.917 33.692 132.322 61.1" width="132.322pt" height="61.1pt"><g><mask id="_mask_RBifCfbxx7qCjPUmISoNbvHPC8Ol1HZM" x="-200%" y="-200%" width="400%" height="400%"><rect x="-200%" y="-200%" width="400%" height="400%" style="fill:white;"/><path d=" M 144.113 94.075 C 144.081 94.048 142.193 93.954 139.916 93.867 C 137.639 93.781 135.524 93.679 135.216 93.641 L 134.656 93.571 L 135.062 92.525 C 136.08 89.905 136.521 86.955 136.263 84.489 C 135.855 80.591 134.221 77.421 131.023 74.323 C 126.738 70.172 119.994 67.271 112.225 66.237 C 107.617 65.624 102.989 65.676 98.244 66.394 C 95.487 66.811 95.039 66.819 94.678 66.458 C 94.446 66.226 94.433 66.133 94.569 65.719 C 94.723 65.254 94.745 65.242 95.772 65.087 C 101.571 64.215 108.723 63.821 113.447 64.114 C 122.51 64.676 129.623 66.648 135.164 70.134 C 140.833 73.7 144.248 78.318 145.626 84.285 C 146.173 86.651 146.131 90.545 145.53 93.209 L 145.324 94.126 L 144.746 94.126 C 144.429 94.126 144.144 94.103 144.113 94.075 L 144.113 94.075 Z  M 80.617 92.854 C 79.57 92.475 78.663 91.359 78.489 90.236 C 78.436 89.894 78.692 88.007 79.232 84.76 C 79.685 82.035 80.088 79.668 80.126 79.5 C 80.194 79.204 80.248 79.194 81.802 79.194 L 83.408 79.194 L 83.246 80.143 C 83.156 80.664 83.114 81.122 83.153 81.161 C 83.191 81.199 83.934 81.23 84.803 81.23 L 86.382 81.23 L 86.251 82.109 L 86.12 82.987 L 84.419 83.025 L 82.718 83.063 L 82.201 86.185 C 81.917 87.902 81.715 89.495 81.754 89.724 C 81.893 90.559 82.859 91.139 84.108 91.139 L 84.701 91.139 L 84.608 91.784 C 84.411 93.155 84.583 93.041 82.722 93.029 C 81.795 93.024 80.874 92.947 80.617 92.854 L 80.617 92.854 Z  M 89.251 92.846 C 88.01 92.403 87.114 91.16 87.114 89.88 C 87.114 89.08 88.005 83.631 88.227 83.079 C 88.485 82.434 89.03 81.889 89.755 81.552 C 90.392 81.255 90.607 81.233 92.853 81.232 C 95.532 81.23 95.928 81.318 96.729 82.086 C 97.256 82.59 97.628 83.27 97.752 83.95 C 97.85 84.491 96.878 90.301 96.564 91.053 C 96.292 91.704 95.317 92.587 94.601 92.831 C 93.796 93.105 90.008 93.116 89.251 92.846 L 89.251 92.846 Z  M 92.985 90.847 C 93.115 90.779 93.313 90.583 93.425 90.413 C 93.677 90.028 94.58 84.826 94.483 84.318 C 94.392 83.839 93.591 83.135 93.116 83.116 C 92.089 83.074 91.69 83.229 91.405 83.78 C 91.144 84.284 90.337 89.341 90.434 89.862 C 90.62 90.866 91.96 91.384 92.985 90.847 L 92.985 90.847 Z  M 101.196 92.846 C 99.937 92.397 99.063 91.181 99.06 89.876 C 99.059 89.337 100.124 82.564 100.372 81.536 C 100.443 81.24 100.498 81.23 102.071 81.23 L 103.695 81.23 L 103.617 81.604 C 103.551 81.916 102.63 87.494 102.375 89.12 C 102.208 90.19 102.98 91.041 104.118 91.041 C 104.729 91.041 105.175 90.831 105.428 90.426 C 105.553 90.227 106.96 82.346 107.064 81.264 C 107.069 81.209 110.325 81.226 110.325 81.282 C 110.325 81.31 109.962 83.45 109.519 86.037 C 108.902 89.634 108.638 90.873 108.399 91.307 C 108.028 91.977 107.127 92.701 106.419 92.898 C 105.669 93.106 101.818 93.068 101.196 92.846 L 101.196 92.846 Z  M 110.461 92.987 C 110.461 92.689 111.998 83.622 112.109 83.267 C 112.3 82.653 113.096 81.81 113.786 81.489 C 114.247 81.275 114.677 81.236 116.619 81.233 L 118.908 81.23 L 118.811 82.011 C 118.757 82.44 118.686 82.837 118.651 82.893 C 118.617 82.949 118.089 82.995 117.477 82.995 C 116.198 82.995 115.519 83.252 115.239 83.843 C 115.095 84.145 113.727 92.277 113.72 92.87 C 113.719 92.996 113.301 93.04 112.09 93.04 C 111.194 93.04 110.461 93.016 110.461 92.987 L 110.461 92.987 Z  M 119.05 92.865 C 119.09 92.76 119.166 92.33 119.219 91.907 L 119.315 91.139 L 121.912 91.136 C 124.847 91.133 125.461 91.038 125.908 90.52 C 126.527 89.803 126.36 89.611 123.967 88.278 C 121.463 86.884 120.88 86.355 120.634 85.254 C 120.31 83.807 120.99 82.215 122.202 81.582 C 122.712 81.316 122.994 81.296 126.868 81.259 C 130.523 81.224 130.982 81.243 130.911 81.427 C 130.867 81.541 130.791 81.941 130.741 82.315 L 130.651 82.995 L 127.881 82.995 C 124.537 82.995 124.077 83.121 123.831 84.101 C 123.746 84.441 123.835 84.514 125.619 85.582 C 128.189 87.12 128.621 87.445 129.036 88.152 C 129.335 88.66 129.396 88.926 129.392 89.714 C 129.386 91.104 128.807 92.057 127.564 92.719 C 127.136 92.947 126.681 92.976 123.033 93.013 C 119.602 93.049 118.989 93.026 119.05 92.865 L 119.05 92.865 Z " fill="black" stroke="none"/></mask><path d=" M 144.113 94.075 C 144.081 94.048 142.193 93.954 139.916 93.867 C 137.639 93.781 135.524 93.679 135.216 93.641 L 134.656 93.571 L 135.062 92.525 C 136.08 89.905 136.521 86.955 136.263 84.489 C 135.855 80.591 134.221 77.421 131.023 74.323 C 126.738 70.172 119.994 67.271 112.225 66.237 C 107.617 65.624 102.989 65.676 98.244 66.394 C 95.487 66.811 95.039 66.819 94.678 66.458 C 94.446 66.226 94.433 66.133 94.569 65.719 C 94.723 65.254 94.745 65.242 95.772 65.087 C 101.571 64.215 108.723 63.821 113.447 64.114 C 122.51 64.676 129.623 66.648 135.164 70.134 C 140.833 73.7 144.248 78.318 145.626 84.285 C 146.173 86.651 146.131 90.545 145.53 93.209 L 145.324 94.126 L 144.746 94.126 C 144.429 94.126 144.144 94.103 144.113 94.075 L 144.113 94.075 Z  M 80.617 92.854 C 79.57 92.475 78.663 91.359 78.489 90.236 C 78.436 89.894 78.692 88.007 79.232 84.76 C 79.685 82.035 80.088 79.668 80.126 79.5 C 80.194 79.204 80.248 79.194 81.802 79.194 L 83.408 79.194 L 83.246 80.143 C 83.156 80.664 83.114 81.122 83.153 81.161 C 83.191 81.199 83.934 81.23 84.803 81.23 L 86.382 81.23 L 86.251 82.109 L 86.12 82.987 L 84.419 83.025 L 82.718 83.063 L 82.201 86.185 C 81.917 87.902 81.715 89.495 81.754 89.724 C 81.893 90.559 82.859 91.139 84.108 91.139 L 84.701 91.139 L 84.608 91.784 C 84.411 93.155 84.583 93.041 82.722 93.029 C 81.795 93.024 80.874 92.947 80.617 92.854 L 80.617 92.854 Z  M 89.251 92.846 C 88.01 92.403 87.114 91.16 87.114 89.88 C 87.114 89.08 88.005 83.631 88.227 83.079 C 88.485 82.434 89.03 81.889 89.755 81.552 C 90.392 81.255 90.607 81.233 92.853 81.232 C 95.532 81.23 95.928 81.318 96.729 82.086 C 97.256 82.59 97.628 83.27 97.752 83.95 C 97.85 84.491 96.878 90.301 96.564 91.053 C 96.292 91.704 95.317 92.587 94.601 92.831 C 93.796 93.105 90.008 93.116 89.251 92.846 L 89.251 92.846 Z  M 92.985 90.847 C 93.115 90.779 93.313 90.583 93.425 90.413 C 93.677 90.028 94.58 84.826 94.483 84.318 C 94.392 83.839 93.591 83.135 93.116 83.116 C 92.089 83.074 91.69 83.229 91.405 83.78 C 91.144 84.284 90.337 89.341 90.434 89.862 C 90.62 90.866 91.96 91.384 92.985 90.847 L 92.985 90.847 Z  M 101.196 92.846 C 99.937 92.397 99.063 91.181 99.06 89.876 C 99.059 89.337 100.124 82.564 100.372 81.536 C 100.443 81.24 100.498 81.23 102.071 81.23 L 103.695 81.23 L 103.617 81.604 C 103.551 81.916 102.63 87.494 102.375 89.12 C 102.208 90.19 102.98 91.041 104.118 91.041 C 104.729 91.041 105.175 90.831 105.428 90.426 C 105.553 90.227 106.96 82.346 107.064 81.264 C 107.069 81.209 110.325 81.226 110.325 81.282 C 110.325 81.31 109.962 83.45 109.519 86.037 C 108.902 89.634 108.638 90.873 108.399 91.307 C 108.028 91.977 107.127 92.701 106.419 92.898 C 105.669 93.106 101.818 93.068 101.196 92.846 L 101.196 92.846 Z  M 110.461 92.987 C 110.461 92.689 111.998 83.622 112.109 83.267 C 112.3 82.653 113.096 81.81 113.786 81.489 C 114.247 81.275 114.677 81.236 116.619 81.233 L 118.908 81.23 L 118.811 82.011 C 118.757 82.44 118.686 82.837 118.651 82.893 C 118.617 82.949 118.089 82.995 117.477 82.995 C 116.198 82.995 115.519 83.252 115.239 83.843 C 115.095 84.145 113.727 92.277 113.72 92.87 C 113.719 92.996 113.301 93.04 112.09 93.04 C 111.194 93.04 110.461 93.016 110.461 92.987 L 110.461 92.987 Z  M 119.05 92.865 C 119.09 92.76 119.166 92.33 119.219 91.907 L 119.315 91.139 L 121.912 91.136 C 124.847 91.133 125.461 91.038 125.908 90.52 C 126.527 89.803 126.36 89.611 123.967 88.278 C 121.463 86.884 120.88 86.355 120.634 85.254 C 120.31 83.807 120.99 82.215 122.202 81.582 C 122.712 81.316 122.994 81.296 126.868 81.259 C 130.523 81.224 130.982 81.243 130.911 81.427 C 130.867 81.541 130.791 81.941 130.741 82.315 L 130.651 82.995 L 127.881 82.995 C 124.537 82.995 124.077 83.121 123.831 84.101 C 123.746 84.441 123.835 84.514 125.619 85.582 C 128.189 87.12 128.621 87.445 129.036 88.152 C 129.335 88.66 129.396 88.926 129.392 89.714 C 129.386 91.104 128.807 92.057 127.564 92.719 C 127.136 92.947 126.681 92.976 123.033 93.013 C 119.602 93.049 118.989 93.026 119.05 92.865 L 119.05 92.865 Z " fill="rgb(55,35,114)"/><path d=" M 144.113 94.075 C 144.081 94.048 142.193 93.954 139.916 93.867 C 137.639 93.781 135.524 93.679 135.216 93.641 L 134.656 93.571 L 135.062 92.525 C 136.08 89.905 136.521 86.955 136.263 84.489 C 135.855 80.591 134.221 77.421 131.023 74.323 C 126.738 70.172 119.994 67.271 112.225 66.237 C 107.617 65.624 102.989 65.676 98.244 66.394 C 95.487 66.811 95.039 66.819 94.678 66.458 C 94.446 66.226 94.433 66.133 94.569 65.719 C 94.723 65.254 94.745 65.242 95.772 65.087 C 101.571 64.215 108.723 63.821 113.447 64.114 C 122.51 64.676 129.623 66.648 135.164 70.134 C 140.833 73.7 144.248 78.318 145.626 84.285 C 146.173 86.651 146.131 90.545 145.53 93.209 L 145.324 94.126 L 144.746 94.126 C 144.429 94.126 144.144 94.103 144.113 94.075 L 144.113 94.075 Z  M 80.617 92.854 C 79.57 92.475 78.663 91.359 78.489 90.236 C 78.436 89.894 78.692 88.007 79.232 84.76 C 79.685 82.035 80.088 79.668 80.126 79.5 C 80.194 79.204 80.248 79.194 81.802 79.194 L 83.408 79.194 L 83.246 80.143 C 83.156 80.664 83.114 81.122 83.153 81.161 C 83.191 81.199 83.934 81.23 84.803 81.23 L 86.382 81.23 L 86.251 82.109 L 86.12 82.987 L 84.419 83.025 L 82.718 83.063 L 82.201 86.185 C 81.917 87.902 81.715 89.495 81.754 89.724 C 81.893 90.559 82.859 91.139 84.108 91.139 L 84.701 91.139 L 84.608 91.784 C 84.411 93.155 84.583 93.041 82.722 93.029 C 81.795 93.024 80.874 92.947 80.617 92.854 L 80.617 92.854 Z  M 89.251 92.846 C 88.01 92.403 87.114 91.16 87.114 89.88 C 87.114 89.08 88.005 83.631 88.227 83.079 C 88.485 82.434 89.03 81.889 89.755 81.552 C 90.392 81.255 90.607 81.233 92.853 81.232 C 95.532 81.23 95.928 81.318 96.729 82.086 C 97.256 82.59 97.628 83.27 97.752 83.95 C 97.85 84.491 96.878 90.301 96.564 91.053 C 96.292 91.704 95.317 92.587 94.601 92.831 C 93.796 93.105 90.008 93.116 89.251 92.846 L 89.251 92.846 Z  M 92.985 90.847 C 93.115 90.779 93.313 90.583 93.425 90.413 C 93.677 90.028 94.58 84.826 94.483 84.318 C 94.392 83.839 93.591 83.135 93.116 83.116 C 92.089 83.074 91.69 83.229 91.405 83.78 C 91.144 84.284 90.337 89.341 90.434 89.862 C 90.62 90.866 91.96 91.384 92.985 90.847 L 92.985 90.847 Z  M 101.196 92.846 C 99.937 92.397 99.063 91.181 99.06 89.876 C 99.059 89.337 100.124 82.564 100.372 81.536 C 100.443 81.24 100.498 81.23 102.071 81.23 L 103.695 81.23 L 103.617 81.604 C 103.551 81.916 102.63 87.494 102.375 89.12 C 102.208 90.19 102.98 91.041 104.118 91.041 C 104.729 91.041 105.175 90.831 105.428 90.426 C 105.553 90.227 106.96 82.346 107.064 81.264 C 107.069 81.209 110.325 81.226 110.325 81.282 C 110.325 81.31 109.962 83.45 109.519 86.037 C 108.902 89.634 108.638 90.873 108.399 91.307 C 108.028 91.977 107.127 92.701 106.419 92.898 C 105.669 93.106 101.818 93.068 101.196 92.846 L 101.196 92.846 Z  M 110.461 92.987 C 110.461 92.689 111.998 83.622 112.109 83.267 C 112.3 82.653 113.096 81.81 113.786 81.489 C 114.247 81.275 114.677 81.236 116.619 81.233 L 118.908 81.23 L 118.811 82.011 C 118.757 82.44 118.686 82.837 118.651 82.893 C 118.617 82.949 118.089 82.995 117.477 82.995 C 116.198 82.995 115.519 83.252 115.239 83.843 C 115.095 84.145 113.727 92.277 113.72 92.87 C 113.719 92.996 113.301 93.04 112.09 93.04 C 111.194 93.04 110.461 93.016 110.461 92.987 L 110.461 92.987 Z  M 119.05 92.865 C 119.09 92.76 119.166 92.33 119.219 91.907 L 119.315 91.139 L 121.912 91.136 C 124.847 91.133 125.461 91.038 125.908 90.52 C 126.527 89.803 126.36 89.611 123.967 88.278 C 121.463 86.884 120.88 86.355 120.634 85.254 C 120.31 83.807 120.99 82.215 122.202 81.582 C 122.712 81.316 122.994 81.296 126.868 81.259 C 130.523 81.224 130.982 81.243 130.911 81.427 C 130.867 81.541 130.791 81.941 130.741 82.315 L 130.651 82.995 L 127.881 82.995 C 124.537 82.995 124.077 83.121 123.831 84.101 C 123.746 84.441 123.835 84.514 125.619 85.582 C 128.189 87.12 128.621 87.445 129.036 88.152 C 129.335 88.66 129.396 88.926 129.392 89.714 C 129.386 91.104 128.807 92.057 127.564 92.719 C 127.136 92.947 126.681 92.976 123.033 93.013 C 119.602 93.049 118.989 93.026 119.05 92.865 L 119.05 92.865 Z " fill="rgb(55,35,114)" mask="url(#_mask_RBifCfbxx7qCjPUmISoNbvHPC8Ol1HZM)" vector-effect="non-scaling-stroke" stroke-width="1.1" stroke="rgb(255,255,255)" stroke-linejoin="miter" stroke-linecap="butt" stroke-miterlimit="4"/><mask id="_mask_nvsIQRzsT0krHDqU2CD5gNYaODdPDRoF" x="-200%" y="-200%" width="400%" height="400%"><rect x="-200%" y="-200%" width="400%" height="400%" style="fill:white;"/><path d=" M 163.328 94.114 C 162.059 94.054 158.336 93.91 155.056 93.792 C 151.776 93.675 149.081 93.564 149.067 93.547 C 149.053 93.53 149.128 93.058 149.235 92.498 C 149.515 91.02 149.622 86.832 149.42 85.21 C 149.207 83.494 148.483 80.683 147.855 79.128 C 144.134 69.916 134.776 63.363 122.377 61.283 C 118.768 60.678 116.747 60.555 111.856 60.64 C 106.765 60.729 104.067 61.028 98.692 62.101 C 96.794 62.479 96.595 62.496 96.158 62.313 C 95.228 61.925 95.04 61.146 95.697 60.404 C 95.956 60.111 96.304 60.001 98.045 59.661 C 112.124 56.909 126.502 57.668 138.827 61.814 C 154.214 66.989 164.599 76.715 167.735 88.886 C 168.034 90.047 168.689 93.684 168.689 94.184 C 168.689 94.284 166.294 94.252 163.328 94.114 L 163.328 94.114 Z  M 55.043 87.329 C 54.524 87.027 54.778 86.616 56.887 84.351 C 61.961 78.896 67.872 73.631 74.377 68.77 C 75.931 67.609 77.202 66.619 77.202 66.57 C 77.202 66.522 76.433 64.96 75.493 63.099 C 73.19 58.542 72.721 57.301 71.983 53.818 L 71.661 52.295 L 72.09 52.119 C 72.326 52.022 72.781 51.899 73.1 51.847 C 73.943 51.708 74.259 51.961 74.479 52.951 C 75.078 55.646 78.693 65.01 79.198 65.179 C 79.27 65.203 79.996 64.77 80.811 64.216 C 88.461 59.022 99.676 52.704 111.254 47.065 C 114.877 45.301 115.344 45.163 115.344 45.858 C 115.344 46.034 115.261 46.247 115.159 46.332 C 115.057 46.417 112.903 47.514 110.374 48.77 C 99.423 54.211 91.516 58.613 84.26 63.311 C 80.083 66.015 79.787 66.221 79.784 66.424 C 79.782 66.529 80.392 67.801 81.138 69.252 C 82.628 72.147 82.676 72.337 82.289 73.823 C 81.955 75.104 81.736 75.371 80.535 75.956 C 79.251 76.58 78.227 76.663 77.345 76.213 C 76.708 75.888 76.225 75.306 76.28 74.928 C 76.317 74.665 76.409 74.648 77.788 74.648 C 79.085 74.648 79.28 74.617 79.451 74.385 C 79.694 74.055 79.693 73.985 79.432 72.723 C 79.188 71.539 77.982 68.185 77.669 67.815 C 77.579 67.709 72.793 71.337 69.954 73.663 C 65.873 77.006 60.374 82.208 56.679 86.22 C 56.043 86.91 55.468 87.474 55.401 87.471 C 55.335 87.469 55.173 87.405 55.043 87.329 L 55.043 87.329 Z  M 41.13 81.438 C 40.151 81.162 39.37 80.744 39.185 80.397 C 39.028 80.104 39.07 78.733 39.241 78.561 C 39.291 78.511 39.721 78.542 40.196 78.629 C 40.67 78.717 41.695 78.788 42.473 78.788 L 43.887 78.788 L 45.338 77.917 C 47.482 76.629 48.994 75.49 50.572 73.974 C 52.762 71.87 53.948 70.302 55.216 67.838 C 56.063 66.193 56.183 65.837 55.982 65.564 C 55.84 65.372 55.519 65.437 52.973 66.171 C 49.537 67.16 45.18 68.255 43.554 68.537 C 42.634 68.697 42.193 68.711 41.598 68.601 C 39.779 68.265 38.389 67.532 37.755 66.574 C 37.456 66.122 37.423 65.965 37.506 65.396 C 37.841 63.107 39.558 60.211 43.021 56.092 C 44.594 54.222 45.418 53.479 47.094 52.421 C 48.303 51.658 48.352 51.641 49.308 51.641 C 50.098 51.641 50.371 51.699 50.734 51.946 C 51.48 52.454 51.522 52.633 51.03 53.194 C 50.792 53.464 50.597 53.766 50.597 53.863 C 50.597 53.961 50.45 54.108 50.269 54.19 C 50.009 54.308 49.926 54.299 49.866 54.144 C 49.757 53.86 49.511 53.904 49.511 54.207 C 49.511 54.401 49.442 54.447 49.234 54.393 C 49.081 54.353 48.975 54.382 48.997 54.457 C 49.018 54.532 48.643 54.884 48.162 55.24 C 46.34 56.587 44.901 58.187 43.635 60.275 C 42.464 62.208 41.8 63.729 41.761 64.57 C 41.711 65.647 41.746 65.672 43.185 65.583 C 45.046 65.469 48.888 64.6 53.786 63.184 C 55.43 62.709 55.865 62.635 57.017 62.635 C 58.764 62.635 60.166 62.948 60.465 63.403 C 60.669 63.716 60.668 63.796 60.442 64.511 C 59.427 67.734 57.163 71.316 54.153 74.466 C 52.453 76.245 48.86 79.371 48.62 79.279 C 48.529 79.244 48.31 79.369 48.134 79.558 C 47.73 79.992 46.294 80.721 44.965 81.168 C 43.669 81.603 42.105 81.713 41.13 81.438 L 41.13 81.438 Z  M 65.927 68.699 C 64.811 68.389 63.772 67.413 62.86 65.817 C 61.811 63.982 61.456 62.757 61.456 60.971 C 61.456 59.847 61.479 59.751 61.818 59.437 C 62.179 59.102 62.265 59.098 63.043 59.389 C 63.441 59.538 63.515 59.704 64.09 61.753 C 64.901 64.64 65.167 65.232 65.948 65.89 C 66.587 66.429 66.651 66.454 67.029 66.297 C 67.887 65.942 68.512 64.852 68.514 63.709 C 68.515 62.808 67.977 61.11 67.152 59.413 C 66.379 57.824 66.342 57.702 66.497 57.275 C 66.767 56.527 67.478 56.339 68.35 56.785 C 68.765 56.996 69.031 57.352 69.854 58.787 C 70.404 59.746 71.34 61.276 71.934 62.185 L 73.013 63.84 L 72.776 64.592 C 72.544 65.328 72.523 65.349 71.829 65.551 C 71.439 65.665 71.065 65.757 70.998 65.757 C 70.931 65.757 70.801 65.967 70.708 66.224 C 70.103 67.898 67.637 69.175 65.927 68.699 L 65.927 68.699 Z  M 78.607 61.55 C 77.877 61.256 77.239 59.809 76.842 57.545 C 76.173 53.731 77.672 50.267 81.121 47.66 C 82.322 46.752 82.567 46.628 83.343 46.537 L 84.07 46.452 L 84.493 47.383 C 84.914 48.308 85.164 49.133 85.539 50.826 C 86.047 53.125 87.163 54.401 89.215 55.027 C 89.879 55.23 90.568 55.947 90.351 56.209 C 90.27 56.306 89.874 56.547 89.47 56.745 C 88.767 57.089 88.698 57.097 87.892 56.939 C 86.31 56.627 85.408 56.17 84.642 55.289 C 84.26 54.85 83.881 54.491 83.799 54.491 C 83.717 54.491 83.416 55.179 83.132 56.018 C 82.03 59.267 80.764 61.236 79.588 61.533 C 79.254 61.617 78.963 61.681 78.94 61.677 C 78.917 61.672 78.768 61.615 78.607 61.55 L 78.607 61.55 Z  M 80.096 57.308 C 81.668 53.559 82.734 49.58 82.247 49.279 C 82.093 49.184 80.886 50.718 80.283 51.776 C 79.609 52.957 79.238 54.355 79.238 55.71 C 79.238 56.919 79.442 58.156 79.641 58.156 C 79.696 58.156 79.9 57.774 80.096 57.308 Z  M 90.225 54.514 C 89.415 53.998 88.726 53.019 86.626 49.399 C 84.682 46.047 84.581 45.725 85.351 45.326 C 85.685 45.154 85.803 45.155 86.315 45.335 C 87.055 45.597 87.468 45.984 87.667 46.604 C 87.845 47.156 89.93 50.419 90.106 50.419 C 90.168 50.419 90.184 49.487 90.14 48.349 C 90.052 46.054 90.191 45.023 90.686 44.285 C 91.384 43.245 92.323 43.682 94.984 46.285 C 95.991 47.271 97.03 48.187 97.291 48.32 C 97.891 48.625 98.629 48.796 98.719 48.65 C 98.757 48.589 98.667 48.213 98.519 47.816 C 97.764 45.786 97.556 43.067 98.025 41.336 C 98.537 39.445 99.806 37.505 101.44 36.116 C 102.717 35.031 103.726 34.442 104.496 34.331 L 105.117 34.242 L 105.555 35.222 C 105.796 35.76 106.147 36.85 106.336 37.643 C 106.841 39.771 107.278 40.808 107.973 41.534 C 108.553 42.139 110.001 42.953 110.499 42.953 C 110.725 42.953 111.544 43.71 111.544 43.92 C 111.544 43.97 111.236 44.209 110.859 44.45 C 110.219 44.861 110.116 44.885 109.264 44.821 C 107.556 44.692 106.219 43.936 105.092 42.461 C 104.833 42.122 104.758 42.245 104.139 44.039 C 103.513 45.852 102.58 47.734 101.918 48.52 C 101.634 48.856 101.36 49.265 101.308 49.429 C 101.186 49.813 99.806 51.074 99.395 51.178 C 98.877 51.308 97.622 50.976 96.49 50.41 C 95.672 50 95.112 49.569 94.035 48.52 C 93.267 47.773 92.579 47.161 92.505 47.161 C 92.417 47.161 92.403 47.772 92.464 48.892 C 92.609 51.536 92.288 53.718 91.642 54.485 C 91.212 54.996 90.99 55.001 90.225 54.514 L 90.225 54.514 Z  M 102.086 42.81 C 102.855 40.687 103.243 39.221 103.355 38.014 C 103.464 36.838 103.333 36.855 102.351 38.144 C 101.487 39.276 100.783 40.675 100.475 41.867 C 100.217 42.87 100.259 45.037 100.55 45.736 L 100.719 46.143 L 101.094 45.329 C 101.3 44.881 101.746 43.747 102.086 42.81 L 102.086 42.81 Z " fill="black" stroke="none"/></mask><path d=" M 163.328 94.114 C 162.059 94.054 158.336 93.91 155.056 93.792 C 151.776 93.675 149.081 93.564 149.067 93.547 C 149.053 93.53 149.128 93.058 149.235 92.498 C 149.515 91.02 149.622 86.832 149.42 85.21 C 149.207 83.494 148.483 80.683 147.855 79.128 C 144.134 69.916 134.776 63.363 122.377 61.283 C 118.768 60.678 116.747 60.555 111.856 60.64 C 106.765 60.729 104.067 61.028 98.692 62.101 C 96.794 62.479 96.595 62.496 96.158 62.313 C 95.228 61.925 95.04 61.146 95.697 60.404 C 95.956 60.111 96.304 60.001 98.045 59.661 C 112.124 56.909 126.502 57.668 138.827 61.814 C 154.214 66.989 164.599 76.715 167.735 88.886 C 168.034 90.047 168.689 93.684 168.689 94.184 C 168.689 94.284 166.294 94.252 163.328 94.114 L 163.328 94.114 Z  M 55.043 87.329 C 54.524 87.027 54.778 86.616 56.887 84.351 C 61.961 78.896 67.872 73.631 74.377 68.77 C 75.931 67.609 77.202 66.619 77.202 66.57 C 77.202 66.522 76.433 64.96 75.493 63.099 C 73.19 58.542 72.721 57.301 71.983 53.818 L 71.661 52.295 L 72.09 52.119 C 72.326 52.022 72.781 51.899 73.1 51.847 C 73.943 51.708 74.259 51.961 74.479 52.951 C 75.078 55.646 78.693 65.01 79.198 65.179 C 79.27 65.203 79.996 64.77 80.811 64.216 C 88.461 59.022 99.676 52.704 111.254 47.065 C 114.877 45.301 115.344 45.163 115.344 45.858 C 115.344 46.034 115.261 46.247 115.159 46.332 C 115.057 46.417 112.903 47.514 110.374 48.77 C 99.423 54.211 91.516 58.613 84.26 63.311 C 80.083 66.015 79.787 66.221 79.784 66.424 C 79.782 66.529 80.392 67.801 81.138 69.252 C 82.628 72.147 82.676 72.337 82.289 73.823 C 81.955 75.104 81.736 75.371 80.535 75.956 C 79.251 76.58 78.227 76.663 77.345 76.213 C 76.708 75.888 76.225 75.306 76.28 74.928 C 76.317 74.665 76.409 74.648 77.788 74.648 C 79.085 74.648 79.28 74.617 79.451 74.385 C 79.694 74.055 79.693 73.985 79.432 72.723 C 79.188 71.539 77.982 68.185 77.669 67.815 C 77.579 67.709 72.793 71.337 69.954 73.663 C 65.873 77.006 60.374 82.208 56.679 86.22 C 56.043 86.91 55.468 87.474 55.401 87.471 C 55.335 87.469 55.173 87.405 55.043 87.329 L 55.043 87.329 Z  M 41.13 81.438 C 40.151 81.162 39.37 80.744 39.185 80.397 C 39.028 80.104 39.07 78.733 39.241 78.561 C 39.291 78.511 39.721 78.542 40.196 78.629 C 40.67 78.717 41.695 78.788 42.473 78.788 L 43.887 78.788 L 45.338 77.917 C 47.482 76.629 48.994 75.49 50.572 73.974 C 52.762 71.87 53.948 70.302 55.216 67.838 C 56.063 66.193 56.183 65.837 55.982 65.564 C 55.84 65.372 55.519 65.437 52.973 66.171 C 49.537 67.16 45.18 68.255 43.554 68.537 C 42.634 68.697 42.193 68.711 41.598 68.601 C 39.779 68.265 38.389 67.532 37.755 66.574 C 37.456 66.122 37.423 65.965 37.506 65.396 C 37.841 63.107 39.558 60.211 43.021 56.092 C 44.594 54.222 45.418 53.479 47.094 52.421 C 48.303 51.658 48.352 51.641 49.308 51.641 C 50.098 51.641 50.371 51.699 50.734 51.946 C 51.48 52.454 51.522 52.633 51.03 53.194 C 50.792 53.464 50.597 53.766 50.597 53.863 C 50.597 53.961 50.45 54.108 50.269 54.19 C 50.009 54.308 49.926 54.299 49.866 54.144 C 49.757 53.86 49.511 53.904 49.511 54.207 C 49.511 54.401 49.442 54.447 49.234 54.393 C 49.081 54.353 48.975 54.382 48.997 54.457 C 49.018 54.532 48.643 54.884 48.162 55.24 C 46.34 56.587 44.901 58.187 43.635 60.275 C 42.464 62.208 41.8 63.729 41.761 64.57 C 41.711 65.647 41.746 65.672 43.185 65.583 C 45.046 65.469 48.888 64.6 53.786 63.184 C 55.43 62.709 55.865 62.635 57.017 62.635 C 58.764 62.635 60.166 62.948 60.465 63.403 C 60.669 63.716 60.668 63.796 60.442 64.511 C 59.427 67.734 57.163 71.316 54.153 74.466 C 52.453 76.245 48.86 79.371 48.62 79.279 C 48.529 79.244 48.31 79.369 48.134 79.558 C 47.73 79.992 46.294 80.721 44.965 81.168 C 43.669 81.603 42.105 81.713 41.13 81.438 L 41.13 81.438 Z  M 65.927 68.699 C 64.811 68.389 63.772 67.413 62.86 65.817 C 61.811 63.982 61.456 62.757 61.456 60.971 C 61.456 59.847 61.479 59.751 61.818 59.437 C 62.179 59.102 62.265 59.098 63.043 59.389 C 63.441 59.538 63.515 59.704 64.09 61.753 C 64.901 64.64 65.167 65.232 65.948 65.89 C 66.587 66.429 66.651 66.454 67.029 66.297 C 67.887 65.942 68.512 64.852 68.514 63.709 C 68.515 62.808 67.977 61.11 67.152 59.413 C 66.379 57.824 66.342 57.702 66.497 57.275 C 66.767 56.527 67.478 56.339 68.35 56.785 C 68.765 56.996 69.031 57.352 69.854 58.787 C 70.404 59.746 71.34 61.276 71.934 62.185 L 73.013 63.84 L 72.776 64.592 C 72.544 65.328 72.523 65.349 71.829 65.551 C 71.439 65.665 71.065 65.757 70.998 65.757 C 70.931 65.757 70.801 65.967 70.708 66.224 C 70.103 67.898 67.637 69.175 65.927 68.699 L 65.927 68.699 Z  M 78.607 61.55 C 77.877 61.256 77.239 59.809 76.842 57.545 C 76.173 53.731 77.672 50.267 81.121 47.66 C 82.322 46.752 82.567 46.628 83.343 46.537 L 84.07 46.452 L 84.493 47.383 C 84.914 48.308 85.164 49.133 85.539 50.826 C 86.047 53.125 87.163 54.401 89.215 55.027 C 89.879 55.23 90.568 55.947 90.351 56.209 C 90.27 56.306 89.874 56.547 89.47 56.745 C 88.767 57.089 88.698 57.097 87.892 56.939 C 86.31 56.627 85.408 56.17 84.642 55.289 C 84.26 54.85 83.881 54.491 83.799 54.491 C 83.717 54.491 83.416 55.179 83.132 56.018 C 82.03 59.267 80.764 61.236 79.588 61.533 C 79.254 61.617 78.963 61.681 78.94 61.677 C 78.917 61.672 78.768 61.615 78.607 61.55 L 78.607 61.55 Z  M 80.096 57.308 C 81.668 53.559 82.734 49.58 82.247 49.279 C 82.093 49.184 80.886 50.718 80.283 51.776 C 79.609 52.957 79.238 54.355 79.238 55.71 C 79.238 56.919 79.442 58.156 79.641 58.156 C 79.696 58.156 79.9 57.774 80.096 57.308 Z  M 90.225 54.514 C 89.415 53.998 88.726 53.019 86.626 49.399 C 84.682 46.047 84.581 45.725 85.351 45.326 C 85.685 45.154 85.803 45.155 86.315 45.335 C 87.055 45.597 87.468 45.984 87.667 46.604 C 87.845 47.156 89.93 50.419 90.106 50.419 C 90.168 50.419 90.184 49.487 90.14 48.349 C 90.052 46.054 90.191 45.023 90.686 44.285 C 91.384 43.245 92.323 43.682 94.984 46.285 C 95.991 47.271 97.03 48.187 97.291 48.32 C 97.891 48.625 98.629 48.796 98.719 48.65 C 98.757 48.589 98.667 48.213 98.519 47.816 C 97.764 45.786 97.556 43.067 98.025 41.336 C 98.537 39.445 99.806 37.505 101.44 36.116 C 102.717 35.031 103.726 34.442 104.496 34.331 L 105.117 34.242 L 105.555 35.222 C 105.796 35.76 106.147 36.85 106.336 37.643 C 106.841 39.771 107.278 40.808 107.973 41.534 C 108.553 42.139 110.001 42.953 110.499 42.953 C 110.725 42.953 111.544 43.71 111.544 43.92 C 111.544 43.97 111.236 44.209 110.859 44.45 C 110.219 44.861 110.116 44.885 109.264 44.821 C 107.556 44.692 106.219 43.936 105.092 42.461 C 104.833 42.122 104.758 42.245 104.139 44.039 C 103.513 45.852 102.58 47.734 101.918 48.52 C 101.634 48.856 101.36 49.265 101.308 49.429 C 101.186 49.813 99.806 51.074 99.395 51.178 C 98.877 51.308 97.622 50.976 96.49 50.41 C 95.672 50 95.112 49.569 94.035 48.52 C 93.267 47.773 92.579 47.161 92.505 47.161 C 92.417 47.161 92.403 47.772 92.464 48.892 C 92.609 51.536 92.288 53.718 91.642 54.485 C 91.212 54.996 90.99 55.001 90.225 54.514 L 90.225 54.514 Z  M 102.086 42.81 C 102.855 40.687 103.243 39.221 103.355 38.014 C 103.464 36.838 103.333 36.855 102.351 38.144 C 101.487 39.276 100.783 40.675 100.475 41.867 C 100.217 42.87 100.259 45.037 100.55 45.736 L 100.719 46.143 L 101.094 45.329 C 101.3 44.881 101.746 43.747 102.086 42.81 L 102.086 42.81 Z " fill="rgb(213,49,42)"/><path d=" M 163.328 94.114 C 162.059 94.054 158.336 93.91 155.056 93.792 C 151.776 93.675 149.081 93.564 149.067 93.547 C 149.053 93.53 149.128 93.058 149.235 92.498 C 149.515 91.02 149.622 86.832 149.42 85.21 C 149.207 83.494 148.483 80.683 147.855 79.128 C 144.134 69.916 134.776 63.363 122.377 61.283 C 118.768 60.678 116.747 60.555 111.856 60.64 C 106.765 60.729 104.067 61.028 98.692 62.101 C 96.794 62.479 96.595 62.496 96.158 62.313 C 95.228 61.925 95.04 61.146 95.697 60.404 C 95.956 60.111 96.304 60.001 98.045 59.661 C 112.124 56.909 126.502 57.668 138.827 61.814 C 154.214 66.989 164.599 76.715 167.735 88.886 C 168.034 90.047 168.689 93.684 168.689 94.184 C 168.689 94.284 166.294 94.252 163.328 94.114 L 163.328 94.114 Z  M 55.043 87.329 C 54.524 87.027 54.778 86.616 56.887 84.351 C 61.961 78.896 67.872 73.631 74.377 68.77 C 75.931 67.609 77.202 66.619 77.202 66.57 C 77.202 66.522 76.433 64.96 75.493 63.099 C 73.19 58.542 72.721 57.301 71.983 53.818 L 71.661 52.295 L 72.09 52.119 C 72.326 52.022 72.781 51.899 73.1 51.847 C 73.943 51.708 74.259 51.961 74.479 52.951 C 75.078 55.646 78.693 65.01 79.198 65.179 C 79.27 65.203 79.996 64.77 80.811 64.216 C 88.461 59.022 99.676 52.704 111.254 47.065 C 114.877 45.301 115.344 45.163 115.344 45.858 C 115.344 46.034 115.261 46.247 115.159 46.332 C 115.057 46.417 112.903 47.514 110.374 48.77 C 99.423 54.211 91.516 58.613 84.26 63.311 C 80.083 66.015 79.787 66.221 79.784 66.424 C 79.782 66.529 80.392 67.801 81.138 69.252 C 82.628 72.147 82.676 72.337 82.289 73.823 C 81.955 75.104 81.736 75.371 80.535 75.956 C 79.251 76.58 78.227 76.663 77.345 76.213 C 76.708 75.888 76.225 75.306 76.28 74.928 C 76.317 74.665 76.409 74.648 77.788 74.648 C 79.085 74.648 79.28 74.617 79.451 74.385 C 79.694 74.055 79.693 73.985 79.432 72.723 C 79.188 71.539 77.982 68.185 77.669 67.815 C 77.579 67.709 72.793 71.337 69.954 73.663 C 65.873 77.006 60.374 82.208 56.679 86.22 C 56.043 86.91 55.468 87.474 55.401 87.471 C 55.335 87.469 55.173 87.405 55.043 87.329 L 55.043 87.329 Z  M 41.13 81.438 C 40.151 81.162 39.37 80.744 39.185 80.397 C 39.028 80.104 39.07 78.733 39.241 78.561 C 39.291 78.511 39.721 78.542 40.196 78.629 C 40.67 78.717 41.695 78.788 42.473 78.788 L 43.887 78.788 L 45.338 77.917 C 47.482 76.629 48.994 75.49 50.572 73.974 C 52.762 71.87 53.948 70.302 55.216 67.838 C 56.063 66.193 56.183 65.837 55.982 65.564 C 55.84 65.372 55.519 65.437 52.973 66.171 C 49.537 67.16 45.18 68.255 43.554 68.537 C 42.634 68.697 42.193 68.711 41.598 68.601 C 39.779 68.265 38.389 67.532 37.755 66.574 C 37.456 66.122 37.423 65.965 37.506 65.396 C 37.841 63.107 39.558 60.211 43.021 56.092 C 44.594 54.222 45.418 53.479 47.094 52.421 C 48.303 51.658 48.352 51.641 49.308 51.641 C 50.098 51.641 50.371 51.699 50.734 51.946 C 51.48 52.454 51.522 52.633 51.03 53.194 C 50.792 53.464 50.597 53.766 50.597 53.863 C 50.597 53.961 50.45 54.108 50.269 54.19 C 50.009 54.308 49.926 54.299 49.866 54.144 C 49.757 53.86 49.511 53.904 49.511 54.207 C 49.511 54.401 49.442 54.447 49.234 54.393 C 49.081 54.353 48.975 54.382 48.997 54.457 C 49.018 54.532 48.643 54.884 48.162 55.24 C 46.34 56.587 44.901 58.187 43.635 60.275 C 42.464 62.208 41.8 63.729 41.761 64.57 C 41.711 65.647 41.746 65.672 43.185 65.583 C 45.046 65.469 48.888 64.6 53.786 63.184 C 55.43 62.709 55.865 62.635 57.017 62.635 C 58.764 62.635 60.166 62.948 60.465 63.403 C 60.669 63.716 60.668 63.796 60.442 64.511 C 59.427 67.734 57.163 71.316 54.153 74.466 C 52.453 76.245 48.86 79.371 48.62 79.279 C 48.529 79.244 48.31 79.369 48.134 79.558 C 47.73 79.992 46.294 80.721 44.965 81.168 C 43.669 81.603 42.105 81.713 41.13 81.438 L 41.13 81.438 Z  M 65.927 68.699 C 64.811 68.389 63.772 67.413 62.86 65.817 C 61.811 63.982 61.456 62.757 61.456 60.971 C 61.456 59.847 61.479 59.751 61.818 59.437 C 62.179 59.102 62.265 59.098 63.043 59.389 C 63.441 59.538 63.515 59.704 64.09 61.753 C 64.901 64.64 65.167 65.232 65.948 65.89 C 66.587 66.429 66.651 66.454 67.029 66.297 C 67.887 65.942 68.512 64.852 68.514 63.709 C 68.515 62.808 67.977 61.11 67.152 59.413 C 66.379 57.824 66.342 57.702 66.497 57.275 C 66.767 56.527 67.478 56.339 68.35 56.785 C 68.765 56.996 69.031 57.352 69.854 58.787 C 70.404 59.746 71.34 61.276 71.934 62.185 L 73.013 63.84 L 72.776 64.592 C 72.544 65.328 72.523 65.349 71.829 65.551 C 71.439 65.665 71.065 65.757 70.998 65.757 C 70.931 65.757 70.801 65.967 70.708 66.224 C 70.103 67.898 67.637 69.175 65.927 68.699 L 65.927 68.699 Z  M 78.607 61.55 C 77.877 61.256 77.239 59.809 76.842 57.545 C 76.173 53.731 77.672 50.267 81.121 47.66 C 82.322 46.752 82.567 46.628 83.343 46.537 L 84.07 46.452 L 84.493 47.383 C 84.914 48.308 85.164 49.133 85.539 50.826 C 86.047 53.125 87.163 54.401 89.215 55.027 C 89.879 55.23 90.568 55.947 90.351 56.209 C 90.27 56.306 89.874 56.547 89.47 56.745 C 88.767 57.089 88.698 57.097 87.892 56.939 C 86.31 56.627 85.408 56.17 84.642 55.289 C 84.26 54.85 83.881 54.491 83.799 54.491 C 83.717 54.491 83.416 55.179 83.132 56.018 C 82.03 59.267 80.764 61.236 79.588 61.533 C 79.254 61.617 78.963 61.681 78.94 61.677 C 78.917 61.672 78.768 61.615 78.607 61.55 L 78.607 61.55 Z  M 80.096 57.308 C 81.668 53.559 82.734 49.58 82.247 49.279 C 82.093 49.184 80.886 50.718 80.283 51.776 C 79.609 52.957 79.238 54.355 79.238 55.71 C 79.238 56.919 79.442 58.156 79.641 58.156 C 79.696 58.156 79.9 57.774 80.096 57.308 Z  M 90.225 54.514 C 89.415 53.998 88.726 53.019 86.626 49.399 C 84.682 46.047 84.581 45.725 85.351 45.326 C 85.685 45.154 85.803 45.155 86.315 45.335 C 87.055 45.597 87.468 45.984 87.667 46.604 C 87.845 47.156 89.93 50.419 90.106 50.419 C 90.168 50.419 90.184 49.487 90.14 48.349 C 90.052 46.054 90.191 45.023 90.686 44.285 C 91.384 43.245 92.323 43.682 94.984 46.285 C 95.991 47.271 97.03 48.187 97.291 48.32 C 97.891 48.625 98.629 48.796 98.719 48.65 C 98.757 48.589 98.667 48.213 98.519 47.816 C 97.764 45.786 97.556 43.067 98.025 41.336 C 98.537 39.445 99.806 37.505 101.44 36.116 C 102.717 35.031 103.726 34.442 104.496 34.331 L 105.117 34.242 L 105.555 35.222 C 105.796 35.76 106.147 36.85 106.336 37.643 C 106.841 39.771 107.278 40.808 107.973 41.534 C 108.553 42.139 110.001 42.953 110.499 42.953 C 110.725 42.953 111.544 43.71 111.544 43.92 C 111.544 43.97 111.236 44.209 110.859 44.45 C 110.219 44.861 110.116 44.885 109.264 44.821 C 107.556 44.692 106.219 43.936 105.092 42.461 C 104.833 42.122 104.758 42.245 104.139 44.039 C 103.513 45.852 102.58 47.734 101.918 48.52 C 101.634 48.856 101.36 49.265 101.308 49.429 C 101.186 49.813 99.806 51.074 99.395 51.178 C 98.877 51.308 97.622 50.976 96.49 50.41 C 95.672 50 95.112 49.569 94.035 48.52 C 93.267 47.773 92.579 47.161 92.505 47.161 C 92.417 47.161 92.403 47.772 92.464 48.892 C 92.609 51.536 92.288 53.718 91.642 54.485 C 91.212 54.996 90.99 55.001 90.225 54.514 L 90.225 54.514 Z  M 102.086 42.81 C 102.855 40.687 103.243 39.221 103.355 38.014 C 103.464 36.838 103.333 36.855 102.351 38.144 C 101.487 39.276 100.783 40.675 100.475 41.867 C 100.217 42.87 100.259 45.037 100.55 45.736 L 100.719 46.143 L 101.094 45.329 C 101.3 44.881 101.746 43.747 102.086 42.81 L 102.086 42.81 Z " fill="rgb(213,49,42)" mask="url(#_mask_nvsIQRzsT0krHDqU2CD5gNYaODdPDRoF)" vector-effect="non-scaling-stroke" stroke-width="1.1" stroke="rgb(255,255,255)" stroke-linejoin="miter" stroke-linecap="butt" stroke-miterlimit="4"/><mask id="_mask_oKGhh6Z9JZjDathjuOr86GY5ijOS27XL" x="-200%" y="-200%" width="400%" height="400%"><rect x="-200%" y="-200%" width="400%" height="400%" style="fill:white;"/><path d=" M 71.355 49.741 C 70.761 49.561 70.134 49.189 69.583 48.691 C 69.173 48.321 69.048 48.107 69.048 47.774 C 69.048 47.258 69.219 47.024 69.886 46.627 C 70.334 46.36 70.447 46.346 71.006 46.486 C 71.347 46.572 71.627 46.687 71.627 46.742 C 71.627 46.797 71.935 47.248 72.312 47.746 C 72.917 48.546 72.986 48.703 72.909 49.115 C 72.841 49.475 72.728 49.612 72.408 49.724 C 71.942 49.886 71.837 49.888 71.355 49.741 L 71.355 49.741 Z " fill="black" stroke="none"/></mask><path d=" M 71.355 49.741 C 70.761 49.561 70.134 49.189 69.583 48.691 C 69.173 48.321 69.048 48.107 69.048 47.774 C 69.048 47.258 69.219 47.024 69.886 46.627 C 70.334 46.36 70.447 46.346 71.006 46.486 C 71.347 46.572 71.627 46.687 71.627 46.742 C 71.627 46.797 71.935 47.248 72.312 47.746 C 72.917 48.546 72.986 48.703 72.909 49.115 C 72.841 49.475 72.728 49.612 72.408 49.724 C 71.942 49.886 71.837 49.888 71.355 49.741 L 71.355 49.741 Z " fill="rgb(213,49,42)"/><path d=" M 71.355 49.741 C 70.761 49.561 70.134 49.189 69.583 48.691 C 69.173 48.321 69.048 48.107 69.048 47.774 C 69.048 47.258 69.219 47.024 69.886 46.627 C 70.334 46.36 70.447 46.346 71.006 46.486 C 71.347 46.572 71.627 46.687 71.627 46.742 C 71.627 46.797 71.935 47.248 72.312 47.746 C 72.917 48.546 72.986 48.703 72.909 49.115 C 72.841 49.475 72.728 49.612 72.408 49.724 C 71.942 49.886 71.837 49.888 71.355 49.741 L 71.355 49.741 Z " fill="rgb(213,49,42)" mask="url(#_mask_oKGhh6Z9JZjDathjuOr86GY5ijOS27XL)" vector-effect="non-scaling-stroke" stroke-width="1.1" stroke="rgb(255,255,255)" stroke-linejoin="miter" stroke-linecap="butt" stroke-miterlimit="4"/></g></svg>