<?xml version="1.0" encoding="UTF-8" standalone="no"?><!-- Generator: Gravit.io --><svg xmlns="http://www.w3.org/2000/svg" xmlns:xlink="http://www.w3.org/1999/xlink" style="isolation:isolate" viewBox="37.467 34.242 725.049 331.521" width="725.049pt" height="331.521pt"><g><g><path d=" M 626.721 364.84 C 626.549 364.687 616.114 364.17 603.533 363.692 C 590.952 363.214 579.265 362.649 577.563 362.438 L 574.468 362.054 L 576.715 356.274 C 582.341 341.797 584.776 325.497 583.35 311.871 C 581.095 290.338 572.065 272.82 554.398 255.704 C 530.718 232.765 493.458 216.737 450.533 211.025 C 425.07 207.636 399.498 207.923 373.283 211.892 C 358.049 214.198 355.574 214.242 353.576 212.245 C 352.297 210.965 352.222 210.452 352.977 208.162 C 353.826 205.591 353.95 205.526 359.625 204.672 C 391.664 199.85 431.183 197.673 457.283 199.293 C 507.359 202.402 546.66 213.296 577.277 232.556 C 608.602 252.261 627.467 277.777 635.083 310.743 C 638.105 323.821 637.874 345.337 634.554 360.056 L 633.413 365.118 L 630.223 365.118 C 628.468 365.118 626.892 364.993 626.721 364.84 L 626.721 364.84 Z  M 275.886 358.091 C 270.1 355.998 265.088 349.832 264.126 343.625 C 263.833 341.736 265.248 331.313 268.234 313.368 C 270.738 298.312 272.962 285.234 273.175 284.306 C 273.549 282.673 273.848 282.618 282.435 282.618 L 291.309 282.618 L 290.41 287.857 C 289.916 290.739 289.685 293.27 289.897 293.482 C 290.109 293.695 294.211 293.868 299.013 293.868 L 307.742 293.868 L 307.017 298.722 L 306.291 303.575 L 296.893 303.784 L 287.494 303.993 L 284.638 321.243 C 283.067 330.731 281.955 339.531 282.167 340.799 C 282.937 345.411 288.273 348.618 295.176 348.618 L 298.453 348.618 L 297.939 352.181 C 296.847 359.753 297.798 359.125 287.514 359.061 C 282.395 359.029 277.304 358.604 275.886 358.091 L 275.886 358.091 Z  M 323.594 358.048 C 316.734 355.6 311.783 348.73 311.783 341.658 C 311.783 337.24 316.709 307.132 317.931 304.081 C 319.358 300.519 322.372 297.509 326.377 295.644 C 329.896 294.005 331.082 293.883 343.495 293.876 C 358.295 293.867 360.484 294.35 364.911 298.594 C 367.82 301.382 369.88 305.139 370.56 308.894 C 371.102 311.885 365.735 343.986 363.999 348.142 C 362.497 351.736 357.108 356.617 353.154 357.964 C 348.703 359.48 327.774 359.54 323.594 358.048 L 323.594 358.048 Z  M 344.221 347.003 C 344.942 346.625 346.037 345.546 346.653 344.606 C 348.048 342.477 353.039 313.737 352.502 310.928 C 351.996 308.28 347.572 304.393 344.944 304.285 C 339.271 304.054 337.067 304.91 335.494 307.953 C 334.054 310.739 329.591 338.68 330.126 341.561 C 331.156 347.11 338.56 349.969 344.221 347.003 L 344.221 347.003 Z  M 389.594 358.048 C 382.637 355.565 377.805 348.848 377.79 341.638 C 377.785 338.658 383.671 301.235 385.039 295.556 C 385.433 293.922 385.734 293.868 394.424 293.868 L 403.402 293.868 L 402.968 295.931 C 402.605 297.655 397.514 328.475 396.108 337.461 C 395.183 343.374 399.447 348.073 405.739 348.073 C 409.114 348.073 411.58 346.916 412.977 344.679 C 413.666 343.575 421.441 300.029 422.015 294.056 C 422.044 293.748 440.033 293.844 440.033 294.152 C 440.033 294.308 438.028 306.13 435.577 320.424 C 432.169 340.3 430.714 347.149 429.39 349.543 C 427.341 353.246 422.362 357.248 418.452 358.334 C 414.305 359.486 393.031 359.275 389.594 358.048 L 389.594 358.048 Z  M 440.783 358.826 C 440.783 357.18 449.278 307.081 449.89 305.118 C 450.947 301.728 455.343 297.068 459.158 295.295 C 461.703 294.113 464.077 293.899 474.807 293.885 L 487.456 293.868 L 486.919 298.18 C 486.624 300.552 486.228 302.746 486.039 303.055 C 485.849 303.365 482.93 303.618 479.551 303.619 C 472.481 303.62 468.731 305.04 467.182 308.301 C 466.388 309.974 458.832 354.905 458.794 358.18 C 458.785 358.878 456.477 359.118 449.783 359.118 C 444.833 359.118 440.783 358.986 440.783 358.825 L 440.783 358.826 Z  M 488.243 358.153 C 488.465 357.576 488.884 355.194 489.176 352.861 L 489.706 348.618 L 504.057 348.601 C 520.271 348.581 523.667 348.057 526.137 345.194 C 529.552 341.234 528.634 340.174 515.408 332.809 C 501.577 325.107 498.352 322.182 496.991 316.1 C 495.202 308.107 498.962 299.306 505.658 295.81 C 508.477 294.339 510.031 294.231 531.438 294.025 C 551.634 293.831 554.168 293.936 553.777 294.954 C 553.535 295.585 553.113 297.793 552.838 299.86 L 552.34 303.619 L 537.037 303.619 C 518.557 303.619 516.017 304.313 514.658 309.728 C 514.187 311.606 514.678 312.013 524.535 317.912 C 538.737 326.412 541.123 328.206 543.42 332.112 C 545.069 334.917 545.404 336.39 545.386 340.744 C 545.353 348.425 542.15 353.689 535.283 357.346 C 532.922 358.604 530.406 358.767 510.249 358.973 C 491.293 359.167 487.903 359.041 488.243 358.154 L 488.243 358.153 Z " fill="rgb(55,35,114)"/><path d=" M 732.891 365.053 C 725.879 364.725 705.313 363.926 687.189 363.276 C 669.066 362.627 654.174 362.017 654.095 361.922 C 654.017 361.827 654.434 359.217 655.021 356.124 C 656.572 347.96 657.162 324.817 656.047 315.858 C 654.867 306.376 650.87 290.842 647.398 282.249 C 626.837 231.354 575.133 195.142 506.622 183.653 C 486.685 180.31 475.517 179.627 448.49 180.099 C 420.365 180.591 405.458 182.245 375.759 188.169 C 365.272 190.262 364.171 190.354 361.755 189.345 C 356.618 187.198 355.579 182.894 359.209 178.795 C 360.642 177.177 362.564 176.569 372.183 174.689 C 449.972 159.485 529.417 163.679 597.516 186.585 C 682.533 215.182 739.917 268.921 757.244 336.168 C 758.896 342.58 762.516 362.68 762.516 365.441 C 762.516 365.992 749.28 365.819 732.891 365.053 L 732.891 365.053 Z  M 134.579 327.564 C 131.714 325.895 133.119 323.627 144.767 311.109 C 172.808 280.972 205.464 251.881 241.409 225.018 C 249.993 218.603 257.016 213.134 257.016 212.865 C 257.016 212.597 252.767 203.967 247.573 193.688 C 234.849 168.506 232.256 161.65 228.18 142.404 L 226.398 133.992 L 228.77 133.017 C 230.074 132.48 232.587 131.804 234.353 131.513 C 239.007 130.746 240.754 132.145 241.971 137.615 C 245.283 152.505 265.253 204.244 268.048 205.176 C 268.445 205.309 272.454 202.916 276.956 199.86 C 319.225 171.161 381.195 136.249 445.165 105.094 C 465.183 95.345 467.766 94.582 467.766 98.421 C 467.766 99.394 467.305 100.573 466.741 101.041 C 466.177 101.509 454.28 107.573 440.303 114.516 C 379.793 144.574 336.106 168.899 296.016 194.854 C 272.936 209.797 271.298 210.936 271.282 212.055 C 271.273 212.635 274.641 219.668 278.766 227.683 C 286.999 243.678 287.263 244.729 285.125 252.941 C 283.281 260.019 282.067 261.494 275.431 264.723 C 268.337 268.175 262.681 268.631 257.807 266.145 C 254.285 264.348 251.621 261.134 251.92 259.043 C 252.128 257.593 252.636 257.499 260.257 257.499 C 267.423 257.499 268.498 257.328 269.445 256.043 C 270.783 254.224 270.779 253.833 269.339 246.863 C 267.988 240.32 261.329 221.787 259.595 219.742 C 259.099 219.157 232.657 239.203 216.968 252.057 C 194.421 270.528 164.037 299.268 143.619 321.436 C 140.105 325.252 136.928 328.363 136.56 328.351 C 136.192 328.34 135.3 327.984 134.579 327.564 L 134.579 327.564 Z  M 57.704 295.015 C 52.299 293.491 47.984 291.182 46.957 289.264 C 46.09 287.643 46.323 280.067 47.269 279.121 C 47.547 278.843 49.92 279.012 52.544 279.495 C 55.168 279.978 60.83 280.374 65.126 280.374 L 72.939 280.374 L 80.957 275.558 C 92.806 268.441 101.157 262.151 109.875 253.774 C 121.976 242.149 128.532 233.487 135.539 219.87 C 140.216 210.78 140.879 208.812 139.768 207.308 C 138.985 206.247 137.208 206.604 123.141 210.657 C 104.157 216.126 80.085 222.175 71.101 223.734 C 66.018 224.616 63.579 224.696 60.292 224.088 C 50.241 222.23 42.563 218.179 39.061 212.887 C 37.409 210.391 37.225 209.522 37.684 206.377 C 39.532 193.73 49.018 177.726 68.153 154.972 C 76.846 144.635 81.399 140.531 90.659 134.686 C 97.342 130.468 97.609 130.374 102.893 130.374 C 107.26 130.374 108.769 130.697 110.772 132.061 C 114.892 134.867 115.127 135.855 112.405 138.955 C 111.091 140.451 110.016 142.116 110.016 142.654 C 110.016 143.193 109.201 144.005 108.204 144.459 C 106.766 145.114 106.307 145.061 105.978 144.204 C 105.376 142.637 104.016 142.879 104.016 144.554 C 104.016 145.624 103.631 145.883 102.484 145.583 C 101.637 145.361 101.05 145.519 101.172 145.936 C 101.292 146.351 99.217 148.297 96.561 150.261 C 86.491 157.704 78.541 166.547 71.549 178.082 C 65.076 188.76 61.408 197.166 61.192 201.814 C 60.917 207.764 61.109 207.9 69.062 207.412 C 79.346 206.782 100.574 201.978 127.636 194.157 C 136.718 191.532 139.122 191.124 145.488 191.124 C 155.142 191.124 162.888 192.849 164.538 195.367 C 165.669 197.094 165.66 197.537 164.414 201.489 C 158.801 219.296 146.297 239.089 129.665 256.494 C 120.27 266.324 100.416 283.592 99.092 283.084 C 98.588 282.89 97.38 283.586 96.408 284.629 C 94.173 287.028 86.242 291.055 78.897 293.521 C 71.737 295.924 63.093 296.534 57.704 295.015 L 57.704 295.015 Z  M 194.72 224.629 C 188.554 222.914 182.813 217.52 177.774 208.705 C 171.977 198.564 170.016 191.798 170.016 181.93 C 170.016 175.716 170.141 175.187 172.013 173.451 C 174.011 171.6 174.486 171.581 178.783 173.188 C 180.983 174.011 181.389 174.927 184.57 186.249 C 189.05 202.199 190.518 205.469 194.833 209.108 C 198.367 212.087 198.721 212.221 200.806 211.357 C 205.548 209.393 209.002 203.373 209.012 197.056 C 209.02 192.075 206.047 182.698 201.488 173.321 C 197.218 164.539 197.012 163.866 197.867 161.503 C 199.361 157.37 203.289 156.332 208.108 158.797 C 210.397 159.967 211.872 161.93 216.417 169.859 C 219.457 175.161 224.628 183.612 227.908 188.638 L 233.873 197.777 L 232.562 201.936 C 231.28 206.002 231.165 206.12 227.331 207.234 C 225.174 207.861 223.108 208.374 222.739 208.374 C 222.37 208.374 221.648 209.535 221.135 210.954 C 217.79 220.204 204.169 227.256 194.72 224.629 L 194.72 224.629 Z  M 264.782 185.129 C 260.745 183.5 257.223 175.508 255.028 162.999 C 251.332 141.922 259.615 122.784 278.669 108.381 C 285.304 103.365 286.663 102.678 290.946 102.175 L 294.965 101.703 L 297.304 106.851 C 299.627 111.963 301.01 116.518 303.08 125.874 C 305.89 138.578 312.057 145.625 323.391 149.085 C 327.061 150.205 330.87 154.168 329.668 155.616 C 329.224 156.151 327.033 157.483 324.8 158.576 C 320.917 160.476 320.534 160.523 316.082 159.647 C 307.342 157.928 302.357 155.398 298.126 150.533 C 296.017 148.108 293.92 146.124 293.466 146.125 C 293.012 146.125 291.354 149.922 289.78 154.562 C 283.694 172.513 276.7 183.394 270.198 185.031 C 268.357 185.495 266.748 185.852 266.621 185.826 C 266.495 185.801 265.667 185.486 264.782 185.129 L 264.782 185.129 Z  M 273.007 161.686 C 281.693 140.975 287.585 118.991 284.894 117.328 C 284.043 116.802 277.375 125.277 274.039 131.124 C 270.319 137.646 268.266 145.374 268.266 152.861 C 268.266 159.54 269.392 166.374 270.493 166.374 C 270.794 166.374 271.926 164.264 273.007 161.686 Z  M 328.975 146.251 C 324.495 143.398 320.692 137.992 309.086 117.986 C 298.344 99.466 297.787 97.686 302.045 95.484 C 303.887 94.531 304.542 94.537 307.372 95.536 C 311.46 96.978 313.739 99.117 314.841 102.546 C 315.821 105.595 327.345 123.624 328.314 123.624 C 328.659 123.624 328.744 118.477 328.503 112.186 C 328.017 99.509 328.783 93.81 331.521 89.732 C 335.379 83.987 340.566 86.402 355.266 100.784 C 360.835 106.233 366.572 111.292 368.016 112.026 C 371.333 113.714 375.407 114.656 375.905 113.851 C 376.115 113.512 375.618 111.437 374.801 109.241 C 370.628 98.024 369.481 83 372.069 73.439 C 374.897 62.987 381.909 52.27 390.939 44.597 C 397.993 38.603 403.57 35.345 407.824 34.735 L 411.257 34.242 L 413.676 39.654 C 415.007 42.63 416.948 48.65 417.99 53.032 C 420.785 64.79 423.197 70.522 427.036 74.529 C 430.244 77.876 438.244 82.372 440.996 82.373 C 442.245 82.374 446.766 86.557 446.766 87.713 C 446.766 87.99 445.064 89.309 442.984 90.644 C 439.447 92.914 438.877 93.046 434.172 92.691 C 424.731 91.98 417.345 87.802 411.116 79.651 C 409.685 77.778 409.273 78.462 405.852 88.374 C 402.394 98.391 397.24 108.791 393.582 113.13 C 392.015 114.99 390.498 117.25 390.212 118.152 C 389.538 120.275 381.913 127.245 379.641 127.816 C 376.777 128.535 369.846 126.702 363.592 123.572 C 359.072 121.309 355.975 118.926 350.024 113.132 C 345.784 109.002 341.979 105.624 341.569 105.624 C 341.087 105.624 341.008 109.001 341.346 115.186 C 342.144 129.795 340.372 141.85 336.805 146.09 C 334.426 148.916 333.201 148.941 328.975 146.251 L 328.975 146.251 Z  M 394.508 81.582 C 398.758 69.85 400.901 61.753 401.52 55.085 C 402.124 48.586 401.399 48.679 395.971 55.798 C 391.198 62.057 387.308 69.784 385.611 76.374 C 384.184 81.912 384.415 93.887 386.022 97.749 L 386.959 99.999 L 389.028 95.499 C 390.166 93.024 392.632 86.761 394.508 81.582 L 394.508 81.582 Z " fill="rgb(213,49,42)"/></g><g><path d=" M 224.708 119.88 C 221.429 118.883 217.966 116.83 214.918 114.076 C 212.653 112.029 211.963 110.848 211.963 109.012 C 211.963 106.161 212.91 104.864 216.593 102.671 C 219.068 101.196 219.695 101.118 222.78 101.895 C 224.668 102.37 226.213 103.006 226.213 103.308 C 226.213 103.61 227.915 106.105 229.995 108.853 C 233.343 113.276 233.722 114.145 233.296 116.418 C 232.922 118.407 232.298 119.166 230.526 119.784 C 227.954 120.68 227.371 120.69 224.708 119.88 L 224.708 119.88 Z " fill="rgb(213,49,42)"/></g></g></svg>