<?xml version="1.0" encoding="UTF-8" standalone="no"?><!-- Generator: Gravit.io --><svg xmlns="http://www.w3.org/2000/svg" xmlns:xlink="http://www.w3.org/1999/xlink" style="isolation:isolate" viewBox="36.767 33.542 198.234 91.4" width="198.234pt" height="91.4pt"><g><mask id="_mask_HmJKNrxJpzCpoWRUEkSDdamYSmquTbOJ" x="-200%" y="-200%" width="400%" height="400%"><rect x="-200%" y="-200%" width="400%" height="400%" style="fill:white;"/><path d=" M 197.435 123.992 C 197.389 123.95 194.556 123.81 191.14 123.68 C 187.725 123.55 184.552 123.397 184.09 123.34 L 183.25 123.235 L 183.86 121.666 C 185.387 117.736 186.048 113.311 185.661 109.612 C 185.049 103.766 182.598 99.01 177.801 94.364 C 171.373 88.136 161.258 83.785 149.605 82.234 C 142.692 81.315 135.75 81.393 128.633 82.47 C 124.497 83.096 123.825 83.108 123.283 82.566 C 122.936 82.218 122.915 82.079 123.121 81.457 C 123.351 80.759 123.385 80.742 124.925 80.51 C 133.623 79.201 144.352 78.61 151.437 79.05 C 165.032 79.894 175.701 82.851 184.012 88.08 C 192.517 93.429 197.638 100.356 199.706 109.306 C 200.526 112.856 200.463 118.697 199.562 122.693 L 199.252 124.067 L 198.386 124.067 C 197.91 124.067 197.482 124.033 197.435 123.992 L 197.435 123.992 Z  M 102.192 122.16 C 100.621 121.591 99.261 119.917 99 118.232 C 98.92 117.719 99.304 114.89 100.115 110.018 C 100.795 105.931 101.398 102.381 101.456 102.129 C 101.558 101.685 101.639 101.67 103.97 101.67 L 106.379 101.67 L 106.135 103.093 C 106.001 103.875 105.938 104.562 105.996 104.62 C 106.053 104.677 107.167 104.725 108.47 104.725 L 110.84 104.725 L 110.643 106.042 L 110.446 107.36 L 107.895 107.416 L 105.343 107.473 L 104.568 112.156 C 104.142 114.732 103.84 117.121 103.897 117.465 C 104.106 118.717 105.555 119.588 107.429 119.588 L 108.319 119.588 L 108.179 120.555 C 107.882 122.611 108.141 122.44 105.349 122.423 C 103.959 122.414 102.577 122.299 102.192 122.16 L 102.192 122.16 Z  M 115.144 122.148 C 113.281 121.483 111.937 119.618 111.937 117.698 C 111.937 116.499 113.275 108.325 113.606 107.497 C 113.994 106.53 114.812 105.713 115.899 105.207 C 116.854 104.762 117.177 104.728 120.546 104.727 C 124.564 104.724 125.158 104.855 126.36 106.007 C 127.15 106.764 127.709 107.784 127.894 108.804 C 128.041 109.616 126.584 118.33 126.113 119.459 C 125.705 120.434 124.242 121.759 123.168 122.125 C 121.96 122.537 116.279 122.553 115.144 122.148 L 115.144 122.148 Z  M 120.743 119.149 C 120.939 119.047 121.236 118.754 121.404 118.499 C 121.782 117.921 123.137 110.119 122.991 109.356 C 122.854 108.637 121.653 107.582 120.94 107.553 C 119.4 107.49 118.801 107.722 118.374 108.548 C 117.983 109.304 116.772 116.89 116.917 117.672 C 117.197 119.179 119.206 119.955 120.743 119.149 L 120.743 119.149 Z  M 133.061 122.148 C 131.172 121.474 129.861 119.65 129.857 117.693 C 129.855 116.884 131.453 106.725 131.825 105.183 C 131.931 104.739 132.013 104.725 134.372 104.725 L 136.81 104.725 L 136.692 105.285 C 136.593 105.753 135.211 114.119 134.83 116.559 C 134.578 118.164 135.736 119.44 137.444 119.44 C 138.36 119.44 139.03 119.126 139.409 118.518 C 139.596 118.219 141.707 106.397 141.863 104.776 C 141.871 104.692 146.754 104.718 146.754 104.802 C 146.754 104.844 146.21 108.053 145.544 111.934 C 144.619 117.33 144.224 119.189 143.865 119.839 C 143.309 120.844 141.957 121.931 140.895 122.226 C 139.77 122.538 133.994 122.481 133.061 122.148 L 133.061 122.148 Z  M 146.958 122.359 C 146.958 121.912 149.264 108.312 149.43 107.779 C 149.717 106.858 150.91 105.593 151.946 105.112 C 152.637 104.791 153.282 104.733 156.194 104.729 L 159.628 104.724 L 159.483 105.895 C 159.403 106.539 159.295 107.135 159.244 107.219 C 159.192 107.303 158.4 107.371 157.482 107.372 C 155.563 107.372 154.545 107.757 154.124 108.643 C 153.909 109.097 151.857 121.295 151.847 122.184 C 151.845 122.373 151.218 122.438 149.401 122.438 C 148.057 122.438 146.958 122.402 146.958 122.359 L 146.958 122.359 Z  M 159.842 122.176 C 159.902 122.02 160.016 121.373 160.095 120.74 L 160.239 119.588 L 164.135 119.583 C 168.537 119.578 169.459 119.436 170.129 118.658 C 171.056 117.583 170.807 117.295 167.217 115.296 C 163.462 113.205 162.586 112.411 162.217 110.76 C 161.731 108.59 162.752 106.201 164.57 105.252 C 165.335 104.852 165.757 104.823 171.568 104.767 C 177.051 104.714 177.739 104.743 177.633 105.019 C 177.567 105.191 177.453 105.79 177.378 106.351 L 177.243 107.372 L 173.088 107.372 C 168.072 107.372 167.382 107.56 167.013 109.03 C 166.885 109.54 167.018 109.65 169.694 111.252 C 173.55 113.559 174.198 114.046 174.821 115.107 C 175.269 115.868 175.36 116.268 175.355 117.45 C 175.346 119.535 174.476 120.964 172.612 121.957 C 171.971 122.299 171.288 122.343 165.816 122.399 C 160.67 122.452 159.75 122.417 159.842 122.176 L 159.842 122.176 Z " fill="black" stroke="none"/></mask><path d=" M 197.435 123.992 C 197.389 123.95 194.556 123.81 191.14 123.68 C 187.725 123.55 184.552 123.397 184.09 123.34 L 183.25 123.235 L 183.86 121.666 C 185.387 117.736 186.048 113.311 185.661 109.612 C 185.049 103.766 182.598 99.01 177.801 94.364 C 171.373 88.136 161.258 83.785 149.605 82.234 C 142.692 81.315 135.75 81.393 128.633 82.47 C 124.497 83.096 123.825 83.108 123.283 82.566 C 122.936 82.218 122.915 82.079 123.121 81.457 C 123.351 80.759 123.385 80.742 124.925 80.51 C 133.623 79.201 144.352 78.61 151.437 79.05 C 165.032 79.894 175.701 82.851 184.012 88.08 C 192.517 93.429 197.638 100.356 199.706 109.306 C 200.526 112.856 200.463 118.697 199.562 122.693 L 199.252 124.067 L 198.386 124.067 C 197.91 124.067 197.482 124.033 197.435 123.992 L 197.435 123.992 Z  M 102.192 122.16 C 100.621 121.591 99.261 119.917 99 118.232 C 98.92 117.719 99.304 114.89 100.115 110.018 C 100.795 105.931 101.398 102.381 101.456 102.129 C 101.558 101.685 101.639 101.67 103.97 101.67 L 106.379 101.67 L 106.135 103.093 C 106.001 103.875 105.938 104.562 105.996 104.62 C 106.053 104.677 107.167 104.725 108.47 104.725 L 110.84 104.725 L 110.643 106.042 L 110.446 107.36 L 107.895 107.416 L 105.343 107.473 L 104.568 112.156 C 104.142 114.732 103.84 117.121 103.897 117.465 C 104.106 118.717 105.555 119.588 107.429 119.588 L 108.319 119.588 L 108.179 120.555 C 107.882 122.611 108.141 122.44 105.349 122.423 C 103.959 122.414 102.577 122.299 102.192 122.16 L 102.192 122.16 Z  M 115.144 122.148 C 113.281 121.483 111.937 119.618 111.937 117.698 C 111.937 116.499 113.275 108.325 113.606 107.497 C 113.994 106.53 114.812 105.713 115.899 105.207 C 116.854 104.762 117.177 104.728 120.546 104.727 C 124.564 104.724 125.158 104.855 126.36 106.007 C 127.15 106.764 127.709 107.784 127.894 108.804 C 128.041 109.616 126.584 118.33 126.113 119.459 C 125.705 120.434 124.242 121.759 123.168 122.125 C 121.96 122.537 116.279 122.553 115.144 122.148 L 115.144 122.148 Z  M 120.743 119.149 C 120.939 119.047 121.236 118.754 121.404 118.499 C 121.782 117.921 123.137 110.119 122.991 109.356 C 122.854 108.637 121.653 107.582 120.94 107.553 C 119.4 107.49 118.801 107.722 118.374 108.548 C 117.983 109.304 116.772 116.89 116.917 117.672 C 117.197 119.179 119.206 119.955 120.743 119.149 L 120.743 119.149 Z  M 133.061 122.148 C 131.172 121.474 129.861 119.65 129.857 117.693 C 129.855 116.884 131.453 106.725 131.825 105.183 C 131.931 104.739 132.013 104.725 134.372 104.725 L 136.81 104.725 L 136.692 105.285 C 136.593 105.753 135.211 114.119 134.83 116.559 C 134.578 118.164 135.736 119.44 137.444 119.44 C 138.36 119.44 139.03 119.126 139.409 118.518 C 139.596 118.219 141.707 106.397 141.863 104.776 C 141.871 104.692 146.754 104.718 146.754 104.802 C 146.754 104.844 146.21 108.053 145.544 111.934 C 144.619 117.33 144.224 119.189 143.865 119.839 C 143.309 120.844 141.957 121.931 140.895 122.226 C 139.77 122.538 133.994 122.481 133.061 122.148 L 133.061 122.148 Z  M 146.958 122.359 C 146.958 121.912 149.264 108.312 149.43 107.779 C 149.717 106.858 150.91 105.593 151.946 105.112 C 152.637 104.791 153.282 104.733 156.194 104.729 L 159.628 104.724 L 159.483 105.895 C 159.403 106.539 159.295 107.135 159.244 107.219 C 159.192 107.303 158.4 107.371 157.482 107.372 C 155.563 107.372 154.545 107.757 154.124 108.643 C 153.909 109.097 151.857 121.295 151.847 122.184 C 151.845 122.373 151.218 122.438 149.401 122.438 C 148.057 122.438 146.958 122.402 146.958 122.359 L 146.958 122.359 Z  M 159.842 122.176 C 159.902 122.02 160.016 121.373 160.095 120.74 L 160.239 119.588 L 164.135 119.583 C 168.537 119.578 169.459 119.436 170.129 118.658 C 171.056 117.583 170.807 117.295 167.217 115.296 C 163.462 113.205 162.586 112.411 162.217 110.76 C 161.731 108.59 162.752 106.201 164.57 105.252 C 165.335 104.852 165.757 104.823 171.568 104.767 C 177.051 104.714 177.739 104.743 177.633 105.019 C 177.567 105.191 177.453 105.79 177.378 106.351 L 177.243 107.372 L 173.088 107.372 C 168.072 107.372 167.382 107.56 167.013 109.03 C 166.885 109.54 167.018 109.65 169.694 111.252 C 173.55 113.559 174.198 114.046 174.821 115.107 C 175.269 115.868 175.36 116.268 175.355 117.45 C 175.346 119.535 174.476 120.964 172.612 121.957 C 171.971 122.299 171.288 122.343 165.816 122.399 C 160.67 122.452 159.75 122.417 159.842 122.176 L 159.842 122.176 Z " fill="rgb(55,35,114)"/><path d=" M 197.435 123.992 C 197.389 123.95 194.556 123.81 191.14 123.68 C 187.725 123.55 184.552 123.397 184.09 123.34 L 183.25 123.235 L 183.86 121.666 C 185.387 117.736 186.048 113.311 185.661 109.612 C 185.049 103.766 182.598 99.01 177.801 94.364 C 171.373 88.136 161.258 83.785 149.605 82.234 C 142.692 81.315 135.75 81.393 128.633 82.47 C 124.497 83.096 123.825 83.108 123.283 82.566 C 122.936 82.218 122.915 82.079 123.121 81.457 C 123.351 80.759 123.385 80.742 124.925 80.51 C 133.623 79.201 144.352 78.61 151.437 79.05 C 165.032 79.894 175.701 82.851 184.012 88.08 C 192.517 93.429 197.638 100.356 199.706 109.306 C 200.526 112.856 200.463 118.697 199.562 122.693 L 199.252 124.067 L 198.386 124.067 C 197.91 124.067 197.482 124.033 197.435 123.992 L 197.435 123.992 Z  M 102.192 122.16 C 100.621 121.591 99.261 119.917 99 118.232 C 98.92 117.719 99.304 114.89 100.115 110.018 C 100.795 105.931 101.398 102.381 101.456 102.129 C 101.558 101.685 101.639 101.67 103.97 101.67 L 106.379 101.67 L 106.135 103.093 C 106.001 103.875 105.938 104.562 105.996 104.62 C 106.053 104.677 107.167 104.725 108.47 104.725 L 110.84 104.725 L 110.643 106.042 L 110.446 107.36 L 107.895 107.416 L 105.343 107.473 L 104.568 112.156 C 104.142 114.732 103.84 117.121 103.897 117.465 C 104.106 118.717 105.555 119.588 107.429 119.588 L 108.319 119.588 L 108.179 120.555 C 107.882 122.611 108.141 122.44 105.349 122.423 C 103.959 122.414 102.577 122.299 102.192 122.16 L 102.192 122.16 Z  M 115.144 122.148 C 113.281 121.483 111.937 119.618 111.937 117.698 C 111.937 116.499 113.275 108.325 113.606 107.497 C 113.994 106.53 114.812 105.713 115.899 105.207 C 116.854 104.762 117.177 104.728 120.546 104.727 C 124.564 104.724 125.158 104.855 126.36 106.007 C 127.15 106.764 127.709 107.784 127.894 108.804 C 128.041 109.616 126.584 118.33 126.113 119.459 C 125.705 120.434 124.242 121.759 123.168 122.125 C 121.96 122.537 116.279 122.553 115.144 122.148 L 115.144 122.148 Z  M 120.743 119.149 C 120.939 119.047 121.236 118.754 121.404 118.499 C 121.782 117.921 123.137 110.119 122.991 109.356 C 122.854 108.637 121.653 107.582 120.94 107.553 C 119.4 107.49 118.801 107.722 118.374 108.548 C 117.983 109.304 116.772 116.89 116.917 117.672 C 117.197 119.179 119.206 119.955 120.743 119.149 L 120.743 119.149 Z  M 133.061 122.148 C 131.172 121.474 129.861 119.65 129.857 117.693 C 129.855 116.884 131.453 106.725 131.825 105.183 C 131.931 104.739 132.013 104.725 134.372 104.725 L 136.81 104.725 L 136.692 105.285 C 136.593 105.753 135.211 114.119 134.83 116.559 C 134.578 118.164 135.736 119.44 137.444 119.44 C 138.36 119.44 139.03 119.126 139.409 118.518 C 139.596 118.219 141.707 106.397 141.863 104.776 C 141.871 104.692 146.754 104.718 146.754 104.802 C 146.754 104.844 146.21 108.053 145.544 111.934 C 144.619 117.33 144.224 119.189 143.865 119.839 C 143.309 120.844 141.957 121.931 140.895 122.226 C 139.77 122.538 133.994 122.481 133.061 122.148 L 133.061 122.148 Z  M 146.958 122.359 C 146.958 121.912 149.264 108.312 149.43 107.779 C 149.717 106.858 150.91 105.593 151.946 105.112 C 152.637 104.791 153.282 104.733 156.194 104.729 L 159.628 104.724 L 159.483 105.895 C 159.403 106.539 159.295 107.135 159.244 107.219 C 159.192 107.303 158.4 107.371 157.482 107.372 C 155.563 107.372 154.545 107.757 154.124 108.643 C 153.909 109.097 151.857 121.295 151.847 122.184 C 151.845 122.373 151.218 122.438 149.401 122.438 C 148.057 122.438 146.958 122.402 146.958 122.359 L 146.958 122.359 Z  M 159.842 122.176 C 159.902 122.02 160.016 121.373 160.095 120.74 L 160.239 119.588 L 164.135 119.583 C 168.537 119.578 169.459 119.436 170.129 118.658 C 171.056 117.583 170.807 117.295 167.217 115.296 C 163.462 113.205 162.586 112.411 162.217 110.76 C 161.731 108.59 162.752 106.201 164.57 105.252 C 165.335 104.852 165.757 104.823 171.568 104.767 C 177.051 104.714 177.739 104.743 177.633 105.019 C 177.567 105.191 177.453 105.79 177.378 106.351 L 177.243 107.372 L 173.088 107.372 C 168.072 107.372 167.382 107.56 167.013 109.03 C 166.885 109.54 167.018 109.65 169.694 111.252 C 173.55 113.559 174.198 114.046 174.821 115.107 C 175.269 115.868 175.36 116.268 175.355 117.45 C 175.346 119.535 174.476 120.964 172.612 121.957 C 171.971 122.299 171.288 122.343 165.816 122.399 C 160.67 122.452 159.75 122.417 159.842 122.176 L 159.842 122.176 Z " fill="rgb(55,35,114)" mask="url(#_mask_HmJKNrxJpzCpoWRUEkSDdamYSmquTbOJ)" vector-effect="non-scaling-stroke" stroke-width="1.4" stroke="rgb(255,255,255)" stroke-linejoin="miter" stroke-linecap="butt" stroke-miterlimit="4"/><mask id="_mask_2UkVu3AEoXZWtpf6kmYUeV2IQrT36hHH" x="-200%" y="-200%" width="400%" height="400%"><rect x="-200%" y="-200%" width="400%" height="400%" style="fill:white;"/><path d=" M 226.258 124.05 C 224.354 123.961 218.771 123.744 213.851 123.567 C 208.931 123.391 204.888 123.225 204.867 123.2 C 204.846 123.174 204.959 122.465 205.118 121.625 C 205.539 119.409 205.699 113.126 205.397 110.694 C 205.076 108.12 203.991 103.903 203.049 101.57 C 197.467 87.754 183.43 77.923 164.831 74.804 C 159.419 73.896 156.387 73.711 149.05 73.839 C 141.415 73.972 137.368 74.421 129.305 76.03 C 126.458 76.598 126.159 76.623 125.503 76.349 C 124.109 75.766 123.827 74.598 124.812 73.485 C 125.201 73.046 125.723 72.881 128.335 72.37 C 149.452 68.243 171.02 69.381 189.507 75.6 C 212.587 83.363 228.165 97.952 232.869 116.208 C 233.318 117.949 234.301 123.405 234.301 124.155 C 234.301 124.304 230.707 124.257 226.258 124.05 L 226.258 124.05 Z  M 63.83 113.872 C 63.053 113.419 63.434 112.803 66.596 109.405 C 74.209 101.224 83.074 93.326 92.832 86.033 C 95.163 84.292 97.069 82.807 97.069 82.734 C 97.069 82.661 95.916 80.318 94.506 77.528 C 91.051 70.692 90.348 68.83 89.241 63.606 L 88.757 61.322 L 89.401 61.057 C 89.755 60.912 90.437 60.728 90.917 60.649 C 92.18 60.441 92.655 60.821 92.985 62.305 C 93.884 66.348 99.305 80.394 100.064 80.647 C 100.172 80.683 101.26 80.033 102.483 79.204 C 113.958 71.413 130.781 61.935 148.147 53.477 C 153.582 50.83 154.283 50.623 154.283 51.665 C 154.283 51.929 154.158 52.25 154.005 52.377 C 153.851 52.504 150.622 54.15 146.827 56.035 C 130.4 64.195 118.54 70.798 107.657 77.845 C 101.391 81.901 100.947 82.21 100.942 82.514 C 100.94 82.672 101.854 84.581 102.974 86.757 C 105.209 91.099 105.281 91.385 104.7 93.614 C 104.2 95.535 103.87 95.936 102.068 96.812 C 100.143 97.75 98.607 97.873 97.284 97.198 C 96.328 96.71 95.605 95.838 95.686 95.27 C 95.742 94.877 95.88 94.851 97.949 94.851 C 99.895 94.851 100.187 94.805 100.443 94.456 C 100.807 93.962 100.806 93.856 100.415 91.964 C 100.048 90.187 98.24 85.156 97.769 84.601 C 97.635 84.442 90.456 89.884 86.197 93.374 C 80.076 98.388 71.828 106.191 66.285 112.209 C 65.331 113.244 64.468 114.089 64.368 114.086 C 64.269 114.083 64.026 113.986 63.83 113.872 L 63.83 113.872 Z  M 42.961 105.036 C 41.494 104.622 40.322 103.995 40.043 103.475 C 39.808 103.035 39.871 100.978 40.128 100.721 C 40.203 100.646 40.848 100.691 41.56 100.823 C 42.272 100.954 43.809 101.061 44.976 101.061 L 47.097 101.061 L 49.273 99.754 C 52.49 97.822 54.757 96.114 57.124 93.84 C 60.409 90.684 62.189 88.332 64.091 84.636 C 65.361 82.168 65.541 81.634 65.239 81.225 C 65.027 80.937 64.544 81.035 60.725 82.135 C 55.572 83.619 49.037 85.262 46.598 85.685 C 45.218 85.924 44.556 85.946 43.663 85.781 C 40.935 85.277 38.85 84.177 37.9 82.74 C 37.451 82.062 37.401 81.826 37.526 80.973 C 38.028 77.539 40.603 73.195 45.797 67.017 C 48.157 64.211 49.394 63.097 51.907 61.51 C 53.722 60.365 53.794 60.34 55.229 60.34 C 56.414 60.34 56.824 60.427 57.368 60.798 C 58.486 61.56 58.55 61.828 57.811 62.669 C 57.454 63.076 57.162 63.528 57.162 63.674 C 57.162 63.82 56.941 64.04 56.67 64.163 C 56.28 64.341 56.155 64.327 56.066 64.094 C 55.903 63.669 55.533 63.735 55.533 64.189 C 55.533 64.48 55.429 64.55 55.118 64.469 C 54.888 64.408 54.728 64.451 54.761 64.564 C 54.794 64.677 54.231 65.205 53.509 65.739 C 50.776 67.759 48.618 70.16 46.719 73.291 C 44.962 76.19 43.966 78.472 43.908 79.734 C 43.833 81.349 43.885 81.386 46.044 81.254 C 48.836 81.083 54.599 79.778 61.946 77.655 C 64.411 76.943 65.064 76.832 66.792 76.832 C 69.413 76.832 71.516 77.3 71.964 77.984 C 72.271 78.453 72.268 78.573 71.93 79.646 C 70.406 84.48 67.012 89.853 62.496 94.578 C 59.946 97.247 54.556 101.935 54.197 101.797 C 54.06 101.744 53.732 101.933 53.468 102.216 C 52.861 102.868 50.708 103.961 48.714 104.63 C 46.77 105.283 44.424 105.448 42.961 105.036 L 42.961 105.036 Z  M 80.157 85.928 C 78.483 85.462 76.925 83.998 75.557 81.605 C 73.983 78.852 73.451 77.015 73.451 74.336 C 73.451 72.649 73.485 72.505 73.993 72.034 C 74.535 71.532 74.664 71.527 75.831 71.963 C 76.428 72.186 76.539 72.435 77.402 75.508 C 78.618 79.838 79.017 80.726 80.188 81.714 C 81.147 82.523 81.244 82.559 81.81 82.325 C 83.097 81.792 84.035 80.157 84.037 78.442 C 84.039 77.09 83.233 74.544 81.995 71.999 C 80.836 69.615 80.78 69.432 81.012 68.791 C 81.417 67.669 82.484 67.387 83.792 68.056 C 84.413 68.373 84.814 68.906 86.048 71.059 C 86.873 72.498 88.277 74.792 89.167 76.157 L 90.787 78.638 L 90.431 79.767 C 90.083 80.871 90.051 80.903 89.01 81.205 C 88.425 81.376 87.864 81.515 87.764 81.515 C 87.664 81.515 87.468 81.83 87.328 82.215 C 86.42 84.727 82.723 86.641 80.157 85.928 L 80.157 85.928 Z  M 99.178 75.205 C 98.082 74.762 97.125 72.593 96.53 69.197 C 95.526 63.475 97.775 58.279 102.947 54.369 C 104.749 53.008 105.118 52.821 106.281 52.684 L 107.372 52.556 L 108.007 53.954 C 108.637 55.341 109.013 56.578 109.574 59.118 C 110.337 62.567 112.012 64.48 115.089 65.419 C 116.085 65.723 117.119 66.799 116.793 67.192 C 116.672 67.338 116.077 67.699 115.471 67.996 C 114.417 68.512 114.313 68.525 113.104 68.287 C 110.732 67.82 109.378 67.133 108.23 65.812 C 107.657 65.154 107.088 64.616 106.965 64.616 C 106.841 64.616 106.391 65.647 105.964 66.906 C 104.312 71.779 102.413 74.733 100.648 75.178 C 100.148 75.304 99.711 75.401 99.677 75.394 C 99.643 75.387 99.418 75.301 99.178 75.205 L 99.178 75.205 Z  M 101.41 68.84 C 103.769 63.218 105.368 57.249 104.638 56.798 C 104.407 56.655 102.596 58.956 101.691 60.543 C 100.681 62.314 100.123 64.412 100.123 66.445 C 100.123 68.258 100.429 70.113 100.728 70.113 C 100.81 70.113 101.117 69.54 101.41 68.84 Z  M 116.605 64.65 C 115.388 63.876 114.356 62.408 111.205 56.977 C 108.289 51.949 108.138 51.466 109.294 50.868 C 109.794 50.609 109.971 50.611 110.74 50.882 C 111.85 51.274 112.468 51.854 112.767 52.785 C 113.034 53.613 116.162 58.507 116.425 58.507 C 116.519 58.507 116.542 57.11 116.476 55.402 C 116.344 51.961 116.552 50.413 117.296 49.307 C 118.343 47.747 119.751 48.402 123.742 52.307 C 125.254 53.786 126.811 55.159 127.203 55.359 C 128.104 55.817 129.21 56.073 129.345 55.854 C 129.402 55.762 129.267 55.199 129.045 54.603 C 127.912 51.557 127.601 47.479 128.303 44.883 C 129.071 42.046 130.975 39.136 133.426 37.053 C 135.341 35.426 136.855 34.542 138.01 34.376 L 138.942 34.242 L 139.599 35.711 C 139.96 36.519 140.487 38.154 140.77 39.343 C 141.529 42.535 142.184 44.091 143.226 45.179 C 144.096 46.088 146.268 47.308 147.015 47.309 C 147.355 47.309 148.582 48.444 148.582 48.758 C 148.582 48.834 148.12 49.192 147.555 49.554 C 146.595 50.17 146.44 50.206 145.163 50.11 C 142.6 49.917 140.595 48.782 138.904 46.57 C 138.515 46.061 138.403 46.247 137.475 48.938 C 136.536 51.657 135.137 54.481 134.144 55.658 C 133.718 56.163 133.306 56.777 133.229 57.022 C 133.046 57.598 130.976 59.49 130.359 59.645 C 129.581 59.84 127.7 59.343 126.002 58.493 C 124.775 57.879 123.934 57.232 122.319 55.659 C 121.168 54.538 120.135 53.621 120.023 53.621 C 119.893 53.621 119.871 54.538 119.963 56.217 C 120.179 60.183 119.699 63.455 118.73 64.606 C 118.084 65.374 117.752 65.38 116.605 64.65 L 116.605 64.65 Z  M 134.395 47.094 C 135.549 43.909 136.131 41.711 136.299 39.9 C 136.463 38.136 136.266 38.162 134.792 40.094 C 133.497 41.793 132.44 43.891 131.98 45.68 C 131.592 47.184 131.655 50.434 132.091 51.483 L 132.346 52.094 L 132.907 50.872 C 133.216 50.2 133.886 48.5 134.395 47.094 L 134.395 47.094 Z " fill="black" stroke="none"/></mask><path d=" M 226.258 124.05 C 224.354 123.961 218.771 123.744 213.851 123.567 C 208.931 123.391 204.888 123.225 204.867 123.2 C 204.846 123.174 204.959 122.465 205.118 121.625 C 205.539 119.409 205.699 113.126 205.397 110.694 C 205.076 108.12 203.991 103.903 203.049 101.57 C 197.467 87.754 183.43 77.923 164.831 74.804 C 159.419 73.896 156.387 73.711 149.05 73.839 C 141.415 73.972 137.368 74.421 129.305 76.03 C 126.458 76.598 126.159 76.623 125.503 76.349 C 124.109 75.766 123.827 74.598 124.812 73.485 C 125.201 73.046 125.723 72.881 128.335 72.37 C 149.452 68.243 171.02 69.381 189.507 75.6 C 212.587 83.363 228.165 97.952 232.869 116.208 C 233.318 117.949 234.301 123.405 234.301 124.155 C 234.301 124.304 230.707 124.257 226.258 124.05 L 226.258 124.05 Z  M 63.83 113.872 C 63.053 113.419 63.434 112.803 66.596 109.405 C 74.209 101.224 83.074 93.326 92.832 86.033 C 95.163 84.292 97.069 82.807 97.069 82.734 C 97.069 82.661 95.916 80.318 94.506 77.528 C 91.051 70.692 90.348 68.83 89.241 63.606 L 88.757 61.322 L 89.401 61.057 C 89.755 60.912 90.437 60.728 90.917 60.649 C 92.18 60.441 92.655 60.821 92.985 62.305 C 93.884 66.348 99.305 80.394 100.064 80.647 C 100.172 80.683 101.26 80.033 102.483 79.204 C 113.958 71.413 130.781 61.935 148.147 53.477 C 153.582 50.83 154.283 50.623 154.283 51.665 C 154.283 51.929 154.158 52.25 154.005 52.377 C 153.851 52.504 150.622 54.15 146.827 56.035 C 130.4 64.195 118.54 70.798 107.657 77.845 C 101.391 81.901 100.947 82.21 100.942 82.514 C 100.94 82.672 101.854 84.581 102.974 86.757 C 105.209 91.099 105.281 91.385 104.7 93.614 C 104.2 95.535 103.87 95.936 102.068 96.812 C 100.143 97.75 98.607 97.873 97.284 97.198 C 96.328 96.71 95.605 95.838 95.686 95.27 C 95.742 94.877 95.88 94.851 97.949 94.851 C 99.895 94.851 100.187 94.805 100.443 94.456 C 100.807 93.962 100.806 93.856 100.415 91.964 C 100.048 90.187 98.24 85.156 97.769 84.601 C 97.635 84.442 90.456 89.884 86.197 93.374 C 80.076 98.388 71.828 106.191 66.285 112.209 C 65.331 113.244 64.468 114.089 64.368 114.086 C 64.269 114.083 64.026 113.986 63.83 113.872 L 63.83 113.872 Z  M 42.961 105.036 C 41.494 104.622 40.322 103.995 40.043 103.475 C 39.808 103.035 39.871 100.978 40.128 100.721 C 40.203 100.646 40.848 100.691 41.56 100.823 C 42.272 100.954 43.809 101.061 44.976 101.061 L 47.097 101.061 L 49.273 99.754 C 52.49 97.822 54.757 96.114 57.124 93.84 C 60.409 90.684 62.189 88.332 64.091 84.636 C 65.361 82.168 65.541 81.634 65.239 81.225 C 65.027 80.937 64.544 81.035 60.725 82.135 C 55.572 83.619 49.037 85.262 46.598 85.685 C 45.218 85.924 44.556 85.946 43.663 85.781 C 40.935 85.277 38.85 84.177 37.9 82.74 C 37.451 82.062 37.401 81.826 37.526 80.973 C 38.028 77.539 40.603 73.195 45.797 67.017 C 48.157 64.211 49.394 63.097 51.907 61.51 C 53.722 60.365 53.794 60.34 55.229 60.34 C 56.414 60.34 56.824 60.427 57.368 60.798 C 58.486 61.56 58.55 61.828 57.811 62.669 C 57.454 63.076 57.162 63.528 57.162 63.674 C 57.162 63.82 56.941 64.04 56.67 64.163 C 56.28 64.341 56.155 64.327 56.066 64.094 C 55.903 63.669 55.533 63.735 55.533 64.189 C 55.533 64.48 55.429 64.55 55.118 64.469 C 54.888 64.408 54.728 64.451 54.761 64.564 C 54.794 64.677 54.231 65.205 53.509 65.739 C 50.776 67.759 48.618 70.16 46.719 73.291 C 44.962 76.19 43.966 78.472 43.908 79.734 C 43.833 81.349 43.885 81.386 46.044 81.254 C 48.836 81.083 54.599 79.778 61.946 77.655 C 64.411 76.943 65.064 76.832 66.792 76.832 C 69.413 76.832 71.516 77.3 71.964 77.984 C 72.271 78.453 72.268 78.573 71.93 79.646 C 70.406 84.48 67.012 89.853 62.496 94.578 C 59.946 97.247 54.556 101.935 54.197 101.797 C 54.06 101.744 53.732 101.933 53.468 102.216 C 52.861 102.868 50.708 103.961 48.714 104.63 C 46.77 105.283 44.424 105.448 42.961 105.036 L 42.961 105.036 Z  M 80.157 85.928 C 78.483 85.462 76.925 83.998 75.557 81.605 C 73.983 78.852 73.451 77.015 73.451 74.336 C 73.451 72.649 73.485 72.505 73.993 72.034 C 74.535 71.532 74.664 71.527 75.831 71.963 C 76.428 72.186 76.539 72.435 77.402 75.508 C 78.618 79.838 79.017 80.726 80.188 81.714 C 81.147 82.523 81.244 82.559 81.81 82.325 C 83.097 81.792 84.035 80.157 84.037 78.442 C 84.039 77.09 83.233 74.544 81.995 71.999 C 80.836 69.615 80.78 69.432 81.012 68.791 C 81.417 67.669 82.484 67.387 83.792 68.056 C 84.413 68.373 84.814 68.906 86.048 71.059 C 86.873 72.498 88.277 74.792 89.167 76.157 L 90.787 78.638 L 90.431 79.767 C 90.083 80.871 90.051 80.903 89.01 81.205 C 88.425 81.376 87.864 81.515 87.764 81.515 C 87.664 81.515 87.468 81.83 87.328 82.215 C 86.42 84.727 82.723 86.641 80.157 85.928 L 80.157 85.928 Z  M 99.178 75.205 C 98.082 74.762 97.125 72.593 96.53 69.197 C 95.526 63.475 97.775 58.279 102.947 54.369 C 104.749 53.008 105.118 52.821 106.281 52.684 L 107.372 52.556 L 108.007 53.954 C 108.637 55.341 109.013 56.578 109.574 59.118 C 110.337 62.567 112.012 64.48 115.089 65.419 C 116.085 65.723 117.119 66.799 116.793 67.192 C 116.672 67.338 116.077 67.699 115.471 67.996 C 114.417 68.512 114.313 68.525 113.104 68.287 C 110.732 67.82 109.378 67.133 108.23 65.812 C 107.657 65.154 107.088 64.616 106.965 64.616 C 106.841 64.616 106.391 65.647 105.964 66.906 C 104.312 71.779 102.413 74.733 100.648 75.178 C 100.148 75.304 99.711 75.401 99.677 75.394 C 99.643 75.387 99.418 75.301 99.178 75.205 L 99.178 75.205 Z  M 101.41 68.84 C 103.769 63.218 105.368 57.249 104.638 56.798 C 104.407 56.655 102.596 58.956 101.691 60.543 C 100.681 62.314 100.123 64.412 100.123 66.445 C 100.123 68.258 100.429 70.113 100.728 70.113 C 100.81 70.113 101.117 69.54 101.41 68.84 Z  M 116.605 64.65 C 115.388 63.876 114.356 62.408 111.205 56.977 C 108.289 51.949 108.138 51.466 109.294 50.868 C 109.794 50.609 109.971 50.611 110.74 50.882 C 111.85 51.274 112.468 51.854 112.767 52.785 C 113.034 53.613 116.162 58.507 116.425 58.507 C 116.519 58.507 116.542 57.11 116.476 55.402 C 116.344 51.961 116.552 50.413 117.296 49.307 C 118.343 47.747 119.751 48.402 123.742 52.307 C 125.254 53.786 126.811 55.159 127.203 55.359 C 128.104 55.817 129.21 56.073 129.345 55.854 C 129.402 55.762 129.267 55.199 129.045 54.603 C 127.912 51.557 127.601 47.479 128.303 44.883 C 129.071 42.046 130.975 39.136 133.426 37.053 C 135.341 35.426 136.855 34.542 138.01 34.376 L 138.942 34.242 L 139.599 35.711 C 139.96 36.519 140.487 38.154 140.77 39.343 C 141.529 42.535 142.184 44.091 143.226 45.179 C 144.096 46.088 146.268 47.308 147.015 47.309 C 147.355 47.309 148.582 48.444 148.582 48.758 C 148.582 48.834 148.12 49.192 147.555 49.554 C 146.595 50.17 146.44 50.206 145.163 50.11 C 142.6 49.917 140.595 48.782 138.904 46.57 C 138.515 46.061 138.403 46.247 137.475 48.938 C 136.536 51.657 135.137 54.481 134.144 55.658 C 133.718 56.163 133.306 56.777 133.229 57.022 C 133.046 57.598 130.976 59.49 130.359 59.645 C 129.581 59.84 127.7 59.343 126.002 58.493 C 124.775 57.879 123.934 57.232 122.319 55.659 C 121.168 54.538 120.135 53.621 120.023 53.621 C 119.893 53.621 119.871 54.538 119.963 56.217 C 120.179 60.183 119.699 63.455 118.73 64.606 C 118.084 65.374 117.752 65.38 116.605 64.65 L 116.605 64.65 Z  M 134.395 47.094 C 135.549 43.909 136.131 41.711 136.299 39.9 C 136.463 38.136 136.266 38.162 134.792 40.094 C 133.497 41.793 132.44 43.891 131.98 45.68 C 131.592 47.184 131.655 50.434 132.091 51.483 L 132.346 52.094 L 132.907 50.872 C 133.216 50.2 133.886 48.5 134.395 47.094 L 134.395 47.094 Z " fill="rgb(213,49,42)"/><path d=" M 226.258 124.05 C 224.354 123.961 218.771 123.744 213.851 123.567 C 208.931 123.391 204.888 123.225 204.867 123.2 C 204.846 123.174 204.959 122.465 205.118 121.625 C 205.539 119.409 205.699 113.126 205.397 110.694 C 205.076 108.12 203.991 103.903 203.049 101.57 C 197.467 87.754 183.43 77.923 164.831 74.804 C 159.419 73.896 156.387 73.711 149.05 73.839 C 141.415 73.972 137.368 74.421 129.305 76.03 C 126.458 76.598 126.159 76.623 125.503 76.349 C 124.109 75.766 123.827 74.598 124.812 73.485 C 125.201 73.046 125.723 72.881 128.335 72.37 C 149.452 68.243 171.02 69.381 189.507 75.6 C 212.587 83.363 228.165 97.952 232.869 116.208 C 233.318 117.949 234.301 123.405 234.301 124.155 C 234.301 124.304 230.707 124.257 226.258 124.05 L 226.258 124.05 Z  M 63.83 113.872 C 63.053 113.419 63.434 112.803 66.596 109.405 C 74.209 101.224 83.074 93.326 92.832 86.033 C 95.163 84.292 97.069 82.807 97.069 82.734 C 97.069 82.661 95.916 80.318 94.506 77.528 C 91.051 70.692 90.348 68.83 89.241 63.606 L 88.757 61.322 L 89.401 61.057 C 89.755 60.912 90.437 60.728 90.917 60.649 C 92.18 60.441 92.655 60.821 92.985 62.305 C 93.884 66.348 99.305 80.394 100.064 80.647 C 100.172 80.683 101.26 80.033 102.483 79.204 C 113.958 71.413 130.781 61.935 148.147 53.477 C 153.582 50.83 154.283 50.623 154.283 51.665 C 154.283 51.929 154.158 52.25 154.005 52.377 C 153.851 52.504 150.622 54.15 146.827 56.035 C 130.4 64.195 118.54 70.798 107.657 77.845 C 101.391 81.901 100.947 82.21 100.942 82.514 C 100.94 82.672 101.854 84.581 102.974 86.757 C 105.209 91.099 105.281 91.385 104.7 93.614 C 104.2 95.535 103.87 95.936 102.068 96.812 C 100.143 97.75 98.607 97.873 97.284 97.198 C 96.328 96.71 95.605 95.838 95.686 95.27 C 95.742 94.877 95.88 94.851 97.949 94.851 C 99.895 94.851 100.187 94.805 100.443 94.456 C 100.807 93.962 100.806 93.856 100.415 91.964 C 100.048 90.187 98.24 85.156 97.769 84.601 C 97.635 84.442 90.456 89.884 86.197 93.374 C 80.076 98.388 71.828 106.191 66.285 112.209 C 65.331 113.244 64.468 114.089 64.368 114.086 C 64.269 114.083 64.026 113.986 63.83 113.872 L 63.83 113.872 Z  M 42.961 105.036 C 41.494 104.622 40.322 103.995 40.043 103.475 C 39.808 103.035 39.871 100.978 40.128 100.721 C 40.203 100.646 40.848 100.691 41.56 100.823 C 42.272 100.954 43.809 101.061 44.976 101.061 L 47.097 101.061 L 49.273 99.754 C 52.49 97.822 54.757 96.114 57.124 93.84 C 60.409 90.684 62.189 88.332 64.091 84.636 C 65.361 82.168 65.541 81.634 65.239 81.225 C 65.027 80.937 64.544 81.035 60.725 82.135 C 55.572 83.619 49.037 85.262 46.598 85.685 C 45.218 85.924 44.556 85.946 43.663 85.781 C 40.935 85.277 38.85 84.177 37.9 82.74 C 37.451 82.062 37.401 81.826 37.526 80.973 C 38.028 77.539 40.603 73.195 45.797 67.017 C 48.157 64.211 49.394 63.097 51.907 61.51 C 53.722 60.365 53.794 60.34 55.229 60.34 C 56.414 60.34 56.824 60.427 57.368 60.798 C 58.486 61.56 58.55 61.828 57.811 62.669 C 57.454 63.076 57.162 63.528 57.162 63.674 C 57.162 63.82 56.941 64.04 56.67 64.163 C 56.28 64.341 56.155 64.327 56.066 64.094 C 55.903 63.669 55.533 63.735 55.533 64.189 C 55.533 64.48 55.429 64.55 55.118 64.469 C 54.888 64.408 54.728 64.451 54.761 64.564 C 54.794 64.677 54.231 65.205 53.509 65.739 C 50.776 67.759 48.618 70.16 46.719 73.291 C 44.962 76.19 43.966 78.472 43.908 79.734 C 43.833 81.349 43.885 81.386 46.044 81.254 C 48.836 81.083 54.599 79.778 61.946 77.655 C 64.411 76.943 65.064 76.832 66.792 76.832 C 69.413 76.832 71.516 77.3 71.964 77.984 C 72.271 78.453 72.268 78.573 71.93 79.646 C 70.406 84.48 67.012 89.853 62.496 94.578 C 59.946 97.247 54.556 101.935 54.197 101.797 C 54.06 101.744 53.732 101.933 53.468 102.216 C 52.861 102.868 50.708 103.961 48.714 104.63 C 46.77 105.283 44.424 105.448 42.961 105.036 L 42.961 105.036 Z  M 80.157 85.928 C 78.483 85.462 76.925 83.998 75.557 81.605 C 73.983 78.852 73.451 77.015 73.451 74.336 C 73.451 72.649 73.485 72.505 73.993 72.034 C 74.535 71.532 74.664 71.527 75.831 71.963 C 76.428 72.186 76.539 72.435 77.402 75.508 C 78.618 79.838 79.017 80.726 80.188 81.714 C 81.147 82.523 81.244 82.559 81.81 82.325 C 83.097 81.792 84.035 80.157 84.037 78.442 C 84.039 77.09 83.233 74.544 81.995 71.999 C 80.836 69.615 80.78 69.432 81.012 68.791 C 81.417 67.669 82.484 67.387 83.792 68.056 C 84.413 68.373 84.814 68.906 86.048 71.059 C 86.873 72.498 88.277 74.792 89.167 76.157 L 90.787 78.638 L 90.431 79.767 C 90.083 80.871 90.051 80.903 89.01 81.205 C 88.425 81.376 87.864 81.515 87.764 81.515 C 87.664 81.515 87.468 81.83 87.328 82.215 C 86.42 84.727 82.723 86.641 80.157 85.928 L 80.157 85.928 Z  M 99.178 75.205 C 98.082 74.762 97.125 72.593 96.53 69.197 C 95.526 63.475 97.775 58.279 102.947 54.369 C 104.749 53.008 105.118 52.821 106.281 52.684 L 107.372 52.556 L 108.007 53.954 C 108.637 55.341 109.013 56.578 109.574 59.118 C 110.337 62.567 112.012 64.48 115.089 65.419 C 116.085 65.723 117.119 66.799 116.793 67.192 C 116.672 67.338 116.077 67.699 115.471 67.996 C 114.417 68.512 114.313 68.525 113.104 68.287 C 110.732 67.82 109.378 67.133 108.23 65.812 C 107.657 65.154 107.088 64.616 106.965 64.616 C 106.841 64.616 106.391 65.647 105.964 66.906 C 104.312 71.779 102.413 74.733 100.648 75.178 C 100.148 75.304 99.711 75.401 99.677 75.394 C 99.643 75.387 99.418 75.301 99.178 75.205 L 99.178 75.205 Z  M 101.41 68.84 C 103.769 63.218 105.368 57.249 104.638 56.798 C 104.407 56.655 102.596 58.956 101.691 60.543 C 100.681 62.314 100.123 64.412 100.123 66.445 C 100.123 68.258 100.429 70.113 100.728 70.113 C 100.81 70.113 101.117 69.54 101.41 68.84 Z  M 116.605 64.65 C 115.388 63.876 114.356 62.408 111.205 56.977 C 108.289 51.949 108.138 51.466 109.294 50.868 C 109.794 50.609 109.971 50.611 110.74 50.882 C 111.85 51.274 112.468 51.854 112.767 52.785 C 113.034 53.613 116.162 58.507 116.425 58.507 C 116.519 58.507 116.542 57.11 116.476 55.402 C 116.344 51.961 116.552 50.413 117.296 49.307 C 118.343 47.747 119.751 48.402 123.742 52.307 C 125.254 53.786 126.811 55.159 127.203 55.359 C 128.104 55.817 129.21 56.073 129.345 55.854 C 129.402 55.762 129.267 55.199 129.045 54.603 C 127.912 51.557 127.601 47.479 128.303 44.883 C 129.071 42.046 130.975 39.136 133.426 37.053 C 135.341 35.426 136.855 34.542 138.01 34.376 L 138.942 34.242 L 139.599 35.711 C 139.96 36.519 140.487 38.154 140.77 39.343 C 141.529 42.535 142.184 44.091 143.226 45.179 C 144.096 46.088 146.268 47.308 147.015 47.309 C 147.355 47.309 148.582 48.444 148.582 48.758 C 148.582 48.834 148.12 49.192 147.555 49.554 C 146.595 50.17 146.44 50.206 145.163 50.11 C 142.6 49.917 140.595 48.782 138.904 46.57 C 138.515 46.061 138.403 46.247 137.475 48.938 C 136.536 51.657 135.137 54.481 134.144 55.658 C 133.718 56.163 133.306 56.777 133.229 57.022 C 133.046 57.598 130.976 59.49 130.359 59.645 C 129.581 59.84 127.7 59.343 126.002 58.493 C 124.775 57.879 123.934 57.232 122.319 55.659 C 121.168 54.538 120.135 53.621 120.023 53.621 C 119.893 53.621 119.871 54.538 119.963 56.217 C 120.179 60.183 119.699 63.455 118.73 64.606 C 118.084 65.374 117.752 65.38 116.605 64.65 L 116.605 64.65 Z  M 134.395 47.094 C 135.549 43.909 136.131 41.711 136.299 39.9 C 136.463 38.136 136.266 38.162 134.792 40.094 C 133.497 41.793 132.44 43.891 131.98 45.68 C 131.592 47.184 131.655 50.434 132.091 51.483 L 132.346 52.094 L 132.907 50.872 C 133.216 50.2 133.886 48.5 134.395 47.094 L 134.395 47.094 Z " fill="rgb(213,49,42)" mask="url(#_mask_2UkVu3AEoXZWtpf6kmYUeV2IQrT36hHH)" vector-effect="non-scaling-stroke" stroke-width="1.4" stroke="rgb(255,255,255)" stroke-linejoin="miter" stroke-linecap="butt" stroke-miterlimit="4"/><mask id="_mask_qJ66ePqV1hNiN5kdB4qY6YTj29EuziRS" x="-200%" y="-200%" width="400%" height="400%"><rect x="-200%" y="-200%" width="400%" height="400%" style="fill:white;"/><path d=" M 88.298 57.491 C 87.408 57.22 86.468 56.663 85.641 55.915 C 85.026 55.36 84.838 55.039 84.838 54.54 C 84.838 53.766 85.096 53.414 86.095 52.819 C 86.767 52.419 86.937 52.397 87.775 52.608 C 88.288 52.737 88.707 52.91 88.707 52.992 C 88.707 53.074 89.169 53.751 89.734 54.497 C 90.643 55.698 90.746 55.934 90.63 56.551 C 90.528 57.091 90.359 57.297 89.878 57.465 C 89.18 57.708 89.021 57.711 88.298 57.491 L 88.298 57.491 Z " fill="black" stroke="none"/></mask><path d=" M 88.298 57.491 C 87.408 57.22 86.468 56.663 85.641 55.915 C 85.026 55.36 84.838 55.039 84.838 54.54 C 84.838 53.766 85.096 53.414 86.095 52.819 C 86.767 52.419 86.937 52.397 87.775 52.608 C 88.288 52.737 88.707 52.91 88.707 52.992 C 88.707 53.074 89.169 53.751 89.734 54.497 C 90.643 55.698 90.746 55.934 90.63 56.551 C 90.528 57.091 90.359 57.297 89.878 57.465 C 89.18 57.708 89.021 57.711 88.298 57.491 L 88.298 57.491 Z " fill="rgb(213,49,42)"/><path d=" M 88.298 57.491 C 87.408 57.22 86.468 56.663 85.641 55.915 C 85.026 55.36 84.838 55.039 84.838 54.54 C 84.838 53.766 85.096 53.414 86.095 52.819 C 86.767 52.419 86.937 52.397 87.775 52.608 C 88.288 52.737 88.707 52.91 88.707 52.992 C 88.707 53.074 89.169 53.751 89.734 54.497 C 90.643 55.698 90.746 55.934 90.63 56.551 C 90.528 57.091 90.359 57.297 89.878 57.465 C 89.18 57.708 89.021 57.711 88.298 57.491 L 88.298 57.491 Z " fill="rgb(213,49,42)" mask="url(#_mask_qJ66ePqV1hNiN5kdB4qY6YTj29EuziRS)" vector-effect="non-scaling-stroke" stroke-width="1.4" stroke="rgb(255,255,255)" stroke-linejoin="miter" stroke-linecap="butt" stroke-miterlimit="4"/></g></svg>